<svg width="52" height="52" viewBox="0 0 52 52" fill="none" xmlns="http://www.w3.org/2000/svg">
<path d="M39.0007 32.4997H13.0007L4.33398 41.1663V6.49967C4.33398 5.92504 4.56226 5.37394 4.96859 4.96761C5.37492 4.56128 5.92602 4.33301 6.50065 4.33301H39.0007C39.5753 4.33301 40.1264 4.56128 40.5327 4.96761C40.939 5.37394 41.1673 5.92504 41.1673 6.49967V30.333C41.1673 30.9076 40.939 31.4587 40.5327 31.8651C40.1264 32.2714 39.5753 32.4997 39.0007 32.4997ZM49.834 19.4997V49.833L41.1673 41.1663H17.334C16.7593 41.1663 16.2082 40.9381 15.8019 40.5317C15.3956 40.1254 15.1673 39.5743 15.1673 38.9997V36.833H45.5007V17.333H47.6673C48.242 17.333 48.7931 17.5613 49.1994 17.9676C49.6057 18.3739 49.834 18.925 49.834 19.4997ZM17.7457 8.66634C15.8607 8.66634 14.344 9.09968 13.174 9.94467C12.0473 10.833 11.484 12.068 11.5057 13.7797L11.5273 13.8447H15.709C15.7307 13.1947 15.9257 12.6963 16.3157 12.3497C16.7169 12.017 17.2246 11.84 17.7457 11.8513C18.4173 11.8513 18.9807 12.068 19.3707 12.458C19.7607 12.8697 19.934 13.433 19.934 14.083C19.934 14.7763 19.7823 15.3613 19.4357 15.8597C19.1323 16.358 18.6773 16.7913 18.114 17.138C17.009 17.8747 16.2507 18.5247 15.839 19.1097C15.4057 19.673 15.1673 20.583 15.1673 21.6663H19.5007C19.5007 20.9947 19.5873 20.453 19.7823 20.063C19.9773 19.673 20.3457 19.283 20.8873 18.9363C21.8623 18.4163 22.664 17.788 23.2923 16.9213C23.9207 16.0547 24.2457 15.1663 24.2457 14.083C24.2457 12.4363 23.6607 11.1147 22.4907 10.1397C21.3423 9.16467 19.7607 8.66634 17.7457 8.66634ZM15.1673 23.833V28.1663H19.5007V23.833H15.1673ZM28.1673 28.1663H32.5007V23.833H28.1673V28.1663ZM28.1673 8.66634V21.6663H32.5007V8.66634H28.1673Z" fill="white"/>
</svg>
