<svg width="40" height="40" viewBox="0 0 40 40" fill="none" xmlns="http://www.w3.org/2000/svg">
<path d="M35.3333 30.9167H39.75V26.5H35.3333M35.3333 39.75H39.75V35.3333H35.3333M22.0833 0H17.6667V17.6667H0V22.0833H17.6667V39.75H22.0833V22.0833H39.75V17.6667H22.0833M26.5 39.75H30.9167V35.3333H26.5M35.3333 4.41667H39.75V0H35.3333M35.3333 13.25H39.75V8.83333H35.3333M30.9167 0H26.5V4.41667H30.9167M4.41667 0H0V4.41667H4.41667M13.25 0H8.83333V4.41667H13.25M0 30.9167H4.41667V26.5H0M4.41667 8.83333H0V13.25H4.41667M8.83333 39.75H13.25V35.3333H8.83333M0 39.75H4.41667V35.3333H0V39.75Z" fill="white"/>
</svg>
