<svg width="85" height="91" viewBox="0 0 85 91" fill="none" xmlns="http://www.w3.org/2000/svg">
<path fill-rule="evenodd" clip-rule="evenodd" d="M16.3797 48.8063C16.3797 47.6841 17.3045 46.7735 18.4209 46.8874C22.4908 47.3026 26.391 48.6868 29.761 51.0244C30.9106 51.8218 32.576 51.4229 33.1876 50.1646C33.7858 48.934 34.4562 47.74 35.1953 46.5889C35.7793 45.6793 35.6118 44.4561 34.7194 43.8463C29.8636 40.528 24.2132 38.5415 18.3784 38.1701C17.276 38.1 16.3797 37.2111 16.3797 36.1065V29.9752C16.3797 28.1903 14.2191 27.2994 12.961 28.5654L0.580621 41.0239C-0.194513 41.8039 -0.194513 43.0634 0.580621 43.8434L12.961 56.3018C14.2191 57.5679 16.3797 56.6769 16.3797 54.8921V48.8063ZM65.9836 46.873C67.0828 46.7634 67.9797 47.6561 67.9797 48.7607V54.8921C67.9797 56.6769 70.1402 57.5679 71.3983 56.3018L83.7788 43.8434C84.5539 43.0634 84.5539 41.8039 83.7788 41.0239L71.3983 28.5654C70.1402 27.2994 67.9797 28.1903 67.9797 29.9752V36.0391C67.9797 37.1697 67.0424 38.0685 65.9127 38.1121C59.1955 38.3709 52.7507 40.9713 47.7026 45.503C42.4594 50.2099 39.1019 56.6602 38.2272 63.6466C38.1293 64.4283 37.6107 65.0919 36.8979 65.4273C33.791 66.8893 31.2955 69.5467 30.2257 72.8531C27.8607 79.6034 31.4297 87.0028 38.0947 89.4259C41.3223 90.5682 44.8683 90.376 47.9555 88.8917C51.0426 87.4074 53.4189 84.7519 54.5637 81.5073C56.7509 75.2646 53.8996 68.4298 48.1528 65.5548C47.3225 65.1395 46.7581 64.2797 46.9163 63.3649C49.2309 49.9845 61.0134 47.3687 65.9836 46.873ZM46.4797 34.5242C46.4797 35.2178 46.118 35.8585 45.5391 36.2404C44.177 37.1393 42.8797 38.1251 41.6507 39.191C40.2548 40.4016 37.8797 39.4698 37.8797 37.6221V18.471C37.8797 17.3664 36.9843 16.471 35.8797 16.471H29.7867C28.008 16.471 27.1143 14.323 28.3681 13.0612L40.761 0.590189C41.5431 -0.196792 42.8163 -0.196793 43.5983 0.590188L55.9913 13.0612C57.2451 14.323 56.3514 16.471 54.5726 16.471H48.4797C47.3751 16.471 46.4797 17.3664 46.4797 18.471V34.5242ZM42.1797 85.1592C46.7298 85.1592 50.4183 81.4474 50.4183 76.8686C50.4183 72.2899 46.7298 68.578 42.1797 68.578C37.6296 68.578 33.941 72.2899 33.941 76.8686C33.941 81.4474 37.6296 85.1592 42.1797 85.1592Z" fill="white"/>
</svg>
