<svg width="84" height="81" viewBox="0 0 84 81" fill="none" xmlns="http://www.w3.org/2000/svg">
<path d="M42.9189 80.2742C42.5283 80.6732 41.8861 80.6746 41.4936 80.2775C33.4091 72.0987 26.7209 65.193 21.4291 59.5604C15.9791 53.7595 11.6671 48.7446 8.49307 44.5158C5.31908 40.2807 3.11007 36.5549 1.86604 33.3385C0.622014 30.1221 0 26.8695 0 23.5808C0 17.0065 2.26825 11.4335 6.80474 6.86201C11.3412 2.29048 16.8677 0.0031441 23.384 0C26.3678 0 29.2518 0.512489 32.0361 1.53747C34.6216 2.48928 36.9879 3.84099 39.1352 5.59261C39.4377 5.8394 39.558 6.24422 39.4509 6.61969L32.2916 31.739C32.1096 32.3777 32.5892 33.0131 33.2533 33.0131H45.1386C45.7254 33.0131 46.186 33.516 46.1348 34.1005L42.7119 73.115L56.6505 24.8583C56.8352 24.2188 56.3554 23.5808 55.6898 23.5808H44.1959C43.5142 23.5808 43.0323 22.9137 43.2465 22.2665L49.6378 2.96167C49.7199 2.71379 49.8952 2.50691 50.1292 2.39105C51.6784 1.62402 53.2986 1.0408 54.9898 0.641397C56.8169 0.213799 58.6938 0 60.6207 0C67.137 0 72.6634 2.28734 77.1999 6.86201C81.7364 11.4367 84.0031 17.0096 84 23.5808C84 26.9324 83.3297 30.2699 81.989 33.5932C80.6452 36.9197 78.352 40.7492 75.1094 45.0817C71.8668 49.4143 67.5704 54.4449 62.2201 60.1735C57.0293 65.7313 50.5955 72.4316 42.9189 80.2742ZM38.3123 70.3132L41.2052 38.8207C41.2591 38.2348 40.7978 37.7293 40.2094 37.7293H27.0694C26.4056 37.7293 25.9261 37.0945 26.1074 36.456L34.0213 8.5923C34.1508 8.13658 33.9434 7.65109 33.5183 7.44196C32.0717 6.73029 30.5613 6.1188 28.9868 5.60751C27.1441 5.01328 25.2765 4.71616 23.384 4.71616C18.2177 4.71616 13.809 6.5586 10.158 10.2435C6.50387 13.9221 4.6768 18.3679 4.6768 23.5808C4.6768 26.1401 5.21463 28.789 6.29029 31.5275C7.36908 34.2629 9.2133 37.4259 11.8229 41.0164C14.4326 44.607 17.8981 48.7525 22.2195 53.4529C26.5408 58.1534 31.9051 63.7735 38.3123 70.3132ZM48.1523 68.1909C59.6822 56.2276 67.7606 47.0232 72.3875 40.5778C77.0144 34.1324 79.3279 28.4667 79.3279 23.5808C79.3279 18.371 77.5008 13.9237 73.8467 10.2388C70.1957 6.55703 65.787 4.71616 60.6207 4.71616C59.4047 4.71616 58.2168 4.85135 57.057 5.12175C56.0623 5.35154 55.0677 5.62086 54.0731 5.9297C53.767 6.02472 53.5281 6.26423 53.429 6.56896L49.855 17.5553C49.6448 18.2015 50.1265 18.8646 50.806 18.8646H61.7378C62.4087 18.8646 62.8893 19.5123 62.6949 20.1544L48.1523 68.1909Z" fill="white"/>
</svg>
