<svg width="141" height="254" viewBox="0 0 141 254" fill="none" xmlns="http://www.w3.org/2000/svg">
<circle cx="41.7749" cy="159.219" r="5.54833" fill="white"/>
<circle cx="68.7436" cy="175.072" r="5.54833" fill="white"/>
<circle cx="63.978" cy="125.137" r="5.54833" fill="white"/>
<circle cx="40.2046" cy="114.04" r="5.54833" fill="white"/>
<circle cx="63.1811" cy="75.9941" r="5.54833" fill="white"/>
<circle cx="106.775" cy="56.1792" r="5.54833" fill="white"/>
<circle cx="89.3296" cy="95.0173" r="5.54833" fill="white"/>
<circle cx="94.8843" cy="32.4004" r="5.54833" fill="white"/>
<path d="M29.7183 250H27.2691C25.6091 250 23.9553 249.796 22.3448 249.394L18.9531 248.545L18.653 248.47C18.3914 248.405 18.1471 248.283 17.9373 248.114C17.5006 247.761 17.2468 247.23 17.2468 246.669V246.334C17.2468 245.927 17.7548 245.113 18.2558 244.705C18.7569 244.298 19.7521 243.891 19.759 242.262C19.7659 240.655 19.7592 241.425 17.8357 239.883C17.783 239.841 17.6446 239.771 17.5853 239.738C17.1277 239.488 17.2663 238.586 16.9439 238.176C16.5708 237.701 16.2446 237.117 16.2446 236.56V234.116V232.487V231.672C16.2446 231.265 17.2468 230.45 19.759 229.636C20.5249 229.428 20.7687 228.903 20.6919 228.223C20.5119 226.628 19.5487 225.862 18.2757 224.884C17.8427 224.551 17.1048 223.693 16.7106 223.315C16.054 222.685 15.1238 221.998 14.7484 221.083C14.2474 219.861 14.7484 220.268 14.7484 219.046C14.7484 218.19 14.0062 217.533 13.047 216.095C12.0659 214.624 10.7365 213.076 10.7365 211.308C10.7365 210.089 10.2342 209.681 9.23672 208.87L9.22981 208.864C8.22769 208.05 9.22981 206.828 9.22981 206.013V202.755C9.22981 201.94 9.22981 201.126 10.2319 200.311C11.234 199.497 10.7365 198.275 10.7365 197.868C10.7365 197.542 9.73203 196.374 9.22981 195.831C8.22885 195.017 6.32645 193.306 6.72451 192.98C7.22209 192.573 6.22693 191.758 5.72239 189.722C5.21785 187.685 4.72375 187.685 4.22269 185.242C3.72163 182.798 4.22269 184.02 4.22269 183.205C4.22269 183.045 4.243 182.897 4.27611 182.764C4.41458 182.208 5.05184 182.072 5.60533 182.222C6.00702 182.331 6.35796 182.577 6.59731 182.918L7.04921 183.56C7.79019 184.614 8.99794 185.242 10.2864 185.242H10.7365C11.0717 185.242 11.7421 185.079 11.7421 184.427C11.7421 183.613 12.2396 182.391 12.2396 180.762V178.318C12.2396 177.096 12.2396 177.503 11.7421 177.096C11.2445 176.689 11.7421 175.874 11.7421 175.06C11.7421 174.245 11.241 173.43 11.7421 172.616C12.3118 171.69 13.9178 172.058 14.5938 171.207C14.6495 171.136 14.7015 171.063 14.7484 170.987C15.2495 170.172 14.7484 170.172 14.7484 168.95C14.7484 167.845 15.8786 167.528 16.984 167.5C17.321 167.491 17.6076 167.441 17.7548 167.321C18.2558 166.914 18.7569 166.914 19.759 166.099C20.7611 165.285 21.2622 165.285 22.2643 163.656C23.2664 162.026 23.2664 161.619 23.2664 160.397C23.2664 159.175 23.7675 159.175 23.2664 157.954C22.7654 156.732 22.7654 156.732 22.2644 155.103L22.2643 155.103C21.7633 153.473 21.7633 153.066 21.7633 152.252C21.7633 151.437 22.2643 148.179 22.7654 147.771C23.7891 146.939 25.4483 147.469 26.5368 146.724C26.6299 146.66 26.7106 146.601 26.7739 146.55C26.9849 146.378 27.4831 145.898 28.005 145.383C28.7835 144.614 29.0099 143.449 28.5948 142.437C28.3877 141.932 28.0335 141.504 27.5869 141.19C25.6514 139.829 22.7654 137.523 22.7654 136.368C22.7654 134.738 22.7654 135.146 23.7675 134.331C24.7696 133.517 23.7675 131.48 23.7675 129.851V125.778C23.7675 124.556 22.7654 121.298 22.2643 117.632C21.7633 113.967 22.2643 114.374 22.7654 112.745C23.2664 111.116 23.2664 109.079 23.7675 107.45C24.2686 105.821 24.2686 106.228 24.7696 104.192C25.2707 102.156 27.776 100.934 28.277 99.7119C28.7781 98.4901 30.7823 96.8609 31.2834 95.6391C31.7845 94.4172 34.7908 94.8245 36.294 94.4172C37.8909 93.9845 39.1756 96.0703 40.7991 96.3894C41.5454 96.5361 42.2819 96.5961 42.8078 96.4536C44.3109 96.0463 44.3109 95.2318 45.3131 93.1954C45.9666 91.8673 45.7677 91.2322 45.2724 90.0473C44.5732 88.375 42.3067 87.6768 42.3067 85.8642C42.3067 85.0497 41.8056 83.8278 42.3067 82.6059C42.8078 81.3841 44.3109 80.9768 44.3109 80.1622C44.3109 79.3477 45.8141 79.3477 46.3152 78.1258C46.8162 76.904 47.3173 76.904 47.8184 75.6821C48.3194 74.4603 49.3215 72.8311 51.3258 70.3874C53.33 67.9437 51.3258 68.351 51.3258 65.0927V62.2417V58.9834C51.3258 57.7616 53.33 58.1689 54.3321 58.1689C55.3343 58.1689 56.8374 58.1689 58.3406 57.3543C59.8438 56.5397 59.8438 56.1324 59.8438 55.7252C59.8438 55.3179 59.3427 53.6887 59.8438 52.8742C60.3448 52.0596 61.347 51.6523 61.848 50.0232C62.3491 48.394 62.8501 48.394 63.3512 47.5795C63.8523 46.7649 64.8544 45.1358 66.3576 43.9139C67.8607 42.692 67.8607 42.2848 68.3618 41.0629C68.8629 39.8411 68.3618 40.2483 68.3618 39.8411C68.3618 39.4338 66.3576 36.9901 66.3576 36.1755C66.3576 35.3609 67.8607 33.7318 68.3618 32.9172C68.8629 32.1026 69.865 30.8808 70.366 30.4735C70.8671 30.0662 72.8713 28.8444 73.8735 27.6225C74.8756 26.4007 73.8735 24.3642 74.3745 23.5497C74.8756 22.7351 76.8798 24.3642 78.383 24.3642C79.8862 24.3642 79.3851 24.7715 81.3893 25.1788C83.3936 25.5861 82.8925 25.1788 82.8925 24.3642C82.8925 23.5497 83.3936 23.1424 82.8925 21.106C82.3915 19.0695 82.8925 19.0695 82.8925 17.8477C82.8925 16.6258 83.3936 16.6258 83.8946 16.6258C84.3957 16.6258 89.4063 15.404 91.4105 15.404C93.4148 15.404 93.4148 15.8113 95.419 16.6258C97.4233 17.4404 96.9222 17.4404 97.9243 17.8477C98.0026 17.8795 98.0748 17.9039 98.1409 17.9208C100.111 18.4249 96.9632 13.8995 98.9264 13.3675C100.43 12.9603 99.4275 12.553 99.4275 10.5166V7.25828C99.4275 6.44371 100.43 4 101.432 4C102.434 4 104.438 5.62909 105.941 6.85094L105.941 6.85099C106.812 7.55893 107.143 9.62008 108.101 10.2043L109.95 11.3311C110.785 11.8742 112.756 13.1232 113.958 13.7748C115.461 14.5894 116.965 14.9967 118.468 15.404C119.971 15.8113 121.975 16.2185 125.483 17.8477C128.99 19.4768 126.986 21.106 126.986 23.5497C126.986 25.9934 127.988 27.2152 128.99 28.4371C129.992 29.6589 128.489 30.8808 128.99 33.7318C129.491 36.5828 130.493 36.1755 131.996 37.8046C133.5 39.4338 132.497 40.2483 132.497 42.2848C132.497 44.3212 133.5 44.7285 132.497 45.9503C131.495 47.1722 132.998 48.8013 132.497 50.8377C131.996 52.8742 132.637 55.4372 132.992 55.7252C133.994 56.5397 137 58.5762 137 60.6126C137 62.649 135.383 62.8749 133.994 62.649C131.488 62.2417 130.994 62.2417 128.99 62.2417C126.986 62.2417 129.491 61.8344 126.986 61.8344C124.48 61.8344 124.48 62.649 123.478 63.0563C122.476 63.4636 122.476 64.2781 120.973 65.0927C119.47 65.9073 118.969 67.1291 116.965 69.1656C114.96 71.202 116.965 72.0165 116.965 72.4238C116.965 72.8311 116.965 73.6457 114.459 74.8675C111.954 76.0894 112.956 78.1258 112.455 79.755C111.954 81.3841 113.457 81.3841 114.459 82.6059C115.461 83.8278 114.459 85.8642 114.459 86.6788C114.459 87.4934 114.96 88.3079 114.459 88.7152C113.958 89.1225 112.455 90.7516 110.952 92.7881C109.449 94.8245 109.95 95.6391 108.948 96.8609C107.946 98.0828 106.943 99.3046 105.941 99.7119C104.939 100.119 102.935 101.341 101.432 102.563C99.9286 103.785 98.4254 103.377 96.4211 103.377C94.4169 103.377 95.419 106.228 93.4148 107.45C91.6402 108.532 90.5249 110.686 88.9756 112.071L88.8443 112.189C87.289 113.579 86.3116 115.692 84.8968 117.225C83.3936 118.854 82.8925 119.262 81.8904 121.298C80.8883 123.334 80.8883 122.927 79.8862 125.778C78.884 128.629 79.8862 127.815 78.383 129.851C76.8798 131.887 76.3788 134.738 75.8777 137.182C75.3766 139.626 75.8777 139.626 75.8777 140.44C75.8777 141.255 76.3788 142.884 76.3788 144.921V149.401V151.03V153.473C76.3788 154.744 77.0164 155.936 78.107 156.587C78.792 156.996 79.4778 157.38 79.8862 157.546C80.8883 157.954 85.3978 159.583 88.4042 160.397C91.4105 161.212 90.9095 161.619 91.4105 162.434C91.9116 163.248 92.4127 166.099 92.4127 168.136V172.209V175.06C92.4127 175.467 91.4105 177.096 89.4063 178.725C87.4021 180.354 87.9031 181.169 86.3999 182.798C84.8968 184.427 83.8946 184.427 82.8925 185.242C81.8539 186.086 80.1115 185.542 78.9032 186.118C77.7554 186.665 76.6238 187.287 76.3788 187.685C75.8777 188.5 73.8735 189.722 72.3703 190.129C70.8671 190.536 70.8671 191.351 70.366 191.758C69.865 192.166 65.8565 192.166 65.8565 192.573C65.8565 193.645 66.1026 194.702 66.5758 195.664L66.8586 196.238C67.1927 197.053 67.8607 199.171 67.8607 201.126C67.8607 203.57 67.8607 204.791 66.8586 207.642C65.8565 210.493 66.8586 210.493 66.8586 211.308C66.8586 212.122 65.3554 214.566 64.3533 217.417C63.3512 220.268 63.3512 222.305 63.3512 224.748C63.3512 227.192 62.8501 226.785 62.3491 227.599C61.848 228.414 61.347 230.043 60.3448 232.487C59.3427 234.93 56.8374 235.745 55.3343 235.745C53.8311 235.745 52.829 236.56 50.3237 236.56C47.8184 236.56 45.8141 236.152 44.812 236.56C43.8099 236.967 42.8078 237.374 39.3003 238.596C39.1141 238.661 38.9401 238.725 38.7776 238.788C36.9649 239.492 37.026 241.98 35.7929 243.483C34.7908 244.705 35.7929 246.742 35.7929 247.556C35.7929 249.886 32.0477 250 29.7183 250Z" stroke="white" stroke-width="8"/>
<circle cx="48.5483" cy="223.548" r="5.54833" fill="white"/>
<circle cx="28.3061" cy="209.947" r="5.54833" fill="white"/>
<line x1="27.8242" y1="208.223" x2="41.2987" y2="161.459" stroke="white"/>
<line x1="45.1892" y1="160.368" x2="72.1382" y2="175.428" stroke="white"/>
<line x1="65.2639" y1="126.68" x2="69.227" y2="174.238" stroke="white"/>
<line x1="49.4006" y1="226.99" x2="29.5851" y2="211.93" stroke="white"/>
<line x1="27.9988" y1="209.552" x2="70.0075" y2="177.054" stroke="white"/>
<line x1="50.0046" y1="224.939" x2="63.4791" y2="126.654" stroke="white"/>
<line x1="39.7819" y1="158.927" x2="64.3531" y2="124.844" stroke="white"/>
<line x1="88.1272" y1="96.9213" x2="65.1413" y2="124.663" stroke="white"/>
<line x1="64.4688" y1="76.7871" x2="64.4688" y2="125.137" stroke="white"/>
<line x1="89.0317" y1="95.4141" x2="65.2532" y2="77.1839" stroke="white"/>
<line x1="108.557" y1="56.6384" x2="62.5854" y2="76.4538" stroke="white"/>
<line x1="88.8379" y1="94.1802" x2="94.3862" y2="31.5634" stroke="white"/>
<line x1="106.318" y1="56.4028" x2="94.4291" y2="32.6243" stroke="white"/>
<line x1="94.4955" y1="32.698" x2="62.7908" y2="75.4994" stroke="white"/>
<line x1="40.6872" y1="114.023" x2="42.2724" y2="159.202" stroke="white"/>
<line x1="41.9858" y1="115.169" x2="64.9717" y2="125.473" stroke="white"/>
<line x1="63.6171" y1="78.6405" x2="41.4238" y2="113.516" stroke="white"/>
</svg>
