<svg width="82" height="60" viewBox="0 0 82 60" fill="none" xmlns="http://www.w3.org/2000/svg">
<path d="M44.7273 15C44.7273 18.9782 43.1565 22.7936 40.3605 25.6066C37.5645 28.4196 33.7723 30 29.8182 30C25.864 30 22.0719 28.4196 19.2759 25.6066C16.4799 22.7936 14.9091 18.9782 14.9091 15C14.9091 11.0218 16.4799 7.20644 19.2759 4.3934C22.0719 1.58035 25.864 0 29.8182 0C33.7723 0 37.5645 1.58035 40.3605 4.3934C43.1565 7.20644 44.7273 11.0218 44.7273 15ZM59.6364 52.5V55C59.6364 57.7614 57.3978 60 54.6364 60H5C2.23858 60 0 57.7614 0 55V52.5C0 44.2125 13.3436 37.5 29.8182 37.5C46.2927 37.5 59.6364 44.2125 59.6364 52.5ZM69.8864 39.375C71.4303 39.375 72.6818 40.6436 72.6818 42.1875C72.6818 43.7314 71.4303 45 69.8864 45C68.3425 45 67.0909 43.7314 67.0909 42.1875C67.0909 40.6436 68.3425 39.375 69.8864 39.375ZM65.2273 18.75C65.2273 19.7855 64.3878 20.625 63.3523 20.625H61.5114C60.4758 20.625 59.6364 19.7855 59.6364 18.75C59.6364 15.7663 60.8144 12.9048 62.9114 10.795C65.0084 8.68526 67.8526 7.5 70.8182 7.5C73.7838 7.5 76.6279 8.68526 78.7249 10.795C80.8219 12.9048 82 15.7663 82 18.75C82 22.3875 80.1364 25.8 77.1918 27.7875L76.0736 28.5C73.9491 30 72.6818 32.2875 72.6818 34.875C72.6818 35.2892 72.346 35.625 71.9318 35.625H67.8409C67.4267 35.625 67.0909 35.2892 67.0909 34.875C67.0909 30.4125 69.3273 26.25 73.0173 23.8125L74.0982 23.1C75.5518 22.125 76.4091 20.5125 76.4091 18.75C76.4091 17.2582 75.82 15.8274 74.7715 14.7725C73.723 13.7176 72.301 13.125 70.8182 13.125C69.3354 13.125 67.9133 13.7176 66.8648 14.7725C65.8163 15.8274 65.2273 17.2582 65.2273 18.75Z" fill="white"/>
</svg>
