<svg width="107" height="108" viewBox="0 0 107 108" fill="none" xmlns="http://www.w3.org/2000/svg">
<path d="M94.1719 8L65.3828 18.8105L75.7148 25.3242C57.2578 48.5664 30.5586 62.8828 8 68.332L14.3906 79.9727C39.7383 71.7109 66.5742 56.8086 83.8594 30.4805L91.7305 35.4414L94.1719 8ZM95.6758 30.793L94.7383 41.4961L84.7188 35.168C84.3672 35.6953 83.9961 36.2031 83.625 36.7305V99.1523H98.8594V30.793H95.6758ZM66.2617 55.793C63.7813 57.9414 61.2227 59.9727 58.625 61.8867V99.1523H73.8594V55.793H66.2617ZM42.1016 72.1992C39.2891 73.6836 36.4766 75.0508 33.625 76.3399V99.1523H48.8594V72.1992H42.1016ZM8.625 80.793V99.1523H23.8594V80.793H22.75C19.8555 81.8672 16.9629 82.8633 14.0879 83.7812L12.709 84.2109L10.834 80.793H8.625Z" fill="white"/>
</svg>
