<svg width="94" height="89" viewBox="0 0 94 89" fill="none" xmlns="http://www.w3.org/2000/svg">
<path d="M24.2353 49.5735V9.08571C24.2353 7.74346 23.7023 6.45618 22.7536 5.50706C21.8049 4.55795 20.5182 4.02474 19.1765 4.02474H9.05882C7.71714 4.02474 6.43041 4.55795 5.48169 5.50706C4.53298 6.45618 4 7.74346 4 9.08571V44.5126C4 45.8548 4.53298 47.1421 5.48169 48.0912C6.43041 49.0403 7.71714 49.5735 9.05882 49.5735H24.2353ZM24.2353 49.5735C29.602 49.5735 34.749 51.7064 38.5438 55.5028C42.3387 59.2993 44.4706 64.4484 44.4706 69.8174V74.8784C44.4706 77.5629 45.5366 80.1375 47.434 82.0357C49.3314 83.9339 51.9049 85.0004 54.5882 85.0004C57.2716 85.0004 59.8451 83.9339 61.7425 82.0357C63.6399 80.1375 64.7059 77.5629 64.7059 74.8784V49.5735H79.8823C82.5657 49.5735 85.1392 48.5071 87.0366 46.6089C88.934 44.7106 90 42.1361 90 39.4516L84.9412 14.1467C84.2136 11.0419 82.8335 8.37594 81.0087 6.55034C79.1839 4.72475 77.0132 3.83837 74.8235 4.02474H39.4118C35.3867 4.02474 31.5265 5.62436 28.6804 8.47171C25.8342 11.3191 24.2353 15.1809 24.2353 19.2077" stroke="white" stroke-width="8" stroke-linecap="round" stroke-linejoin="round"/>
</svg>
