<svg width="53" height="62" viewBox="0 0 53 62" fill="none" xmlns="http://www.w3.org/2000/svg">
<path d="M52.5028 0V32.0611C52.5028 32.0611 52.2769 39.11 51.8249 41.3081C49.6406 51.7677 41.6565 59.5746 31.1115 61.5452C29.4544 61.8484 27.7973 62 26.2156 62C21.2443 61.9242 17.4029 60.5599 14.0134 58.7408C11.6785 57.5281 6.93319 53.2836 6.63191 52.8288C6.55659 52.7531 5.80337 51.7677 5.5774 51.4645C3.76968 49.0391 2.03728 45.78 1.35939 42.445C1.0581 41.1565 -0.0717264 35.8509 0.00359536 31.379C0.0789171 31 0.00359536 0 0.00359536 0H52.5028Z" fill="#0063BE"/>
<path d="M0.605469 0.606445C0.605469 7.42796 0.605469 30.3937 0.605469 30.3937H51.8242V0.606445H0.605469Z" fill="#F4AA00"/>
<path d="M24.7107 43.127C24.4094 44.0365 24.56 45.325 24.4094 46.5377C24.2587 48.4326 24.1834 50.4032 24.1081 52.2981C24.1081 52.2981 24.1834 52.5255 24.1834 52.6013C24.1834 53.5108 24.1081 54.7993 23.6562 55.3299C23.2796 55.7089 22.677 55.7089 22.1497 55.6331C20.116 55.2541 15.5967 52.7529 15.0695 50.9338C14.9188 50.2516 15.2955 49.6453 15.4461 49.2663C13.9397 48.8873 12.2073 48.3568 10.3242 48.3568C10.5502 50.4032 11.0021 51.8433 11.7553 53.2834C12.2073 53.056 12.8098 52.9045 13.4124 53.2076C13.9397 53.435 14.2409 53.8898 14.6929 54.2688C15.4461 54.8751 16.1993 55.5573 17.0279 56.0878C18.9862 57.3763 21.3212 58.2859 23.7315 59.1954C24.1834 59.347 25.9911 60.4081 26.2171 60.4081C26.4431 60.4081 27.9495 59.5744 28.3261 59.4228C30.7364 58.5133 33.2973 57.5279 35.2557 56.1636C36.5362 55.2541 37.5907 53.814 38.9465 53.056C39.549 52.6771 40.3776 53.435 40.7542 53.1318C41.3568 52.6013 41.884 49.5695 41.884 48.281C41.0555 48.4326 40.2269 48.4326 39.4737 48.5842C38.7205 48.8115 37.9673 49.1905 37.1388 49.4179C37.2141 50.0243 37.5154 51.0096 37.1388 51.6159C36.3855 52.7529 30.887 56.5426 29.0793 55.6331C28.8534 55.4815 28.4768 55.0267 28.4014 54.7235C28.1755 53.7382 28.3261 52.5255 28.3261 51.6159C28.2508 48.8115 28.2508 46.0071 27.8742 43.2785C26.7444 43.127 25.8405 43.127 24.7107 43.127Z" fill="#F4AA00"/>
<path d="M18.4591 40.3228C18.1578 40.3985 17.7058 40.4743 17.3292 40.5501C17.3292 41.0049 17.2539 41.5355 17.2539 42.066C17.6305 42.2176 18.3084 42.445 18.8357 42.3692C19.4382 42.2934 19.1369 40.7775 19.1369 40.3228C18.8357 40.3228 18.6097 40.3228 18.4591 40.3228Z" fill="#F4AA00"/>
<path d="M21.3203 40.1709C21.3203 40.1709 21.3956 41.7626 21.3203 42.3689L21.3956 42.4447C21.8476 42.5963 28.7018 42.5963 31.1875 42.3689C31.2628 41.99 31.2628 41.611 31.1875 41.3078V40.1709H21.3203Z" fill="#F4AA00"/>
<path d="M33.8234 40.2469C33.2961 40.3227 33.5974 41.9144 33.5974 42.2934C33.974 42.2934 34.2 42.2934 34.5013 42.2176C35.7817 41.9902 35.4051 41.6112 35.4051 40.3985C34.9532 40.3985 34.2753 40.1711 33.8234 40.2469Z" fill="#F4AA00"/>
<path d="M19.7401 39.3374C19.6648 40.0953 19.6648 41.0807 19.7401 41.687V42.2176C19.5894 43.2029 19.7401 43.3545 20.7193 43.1271C20.7193 42.445 20.7193 41.7628 20.7193 41.1565C20.7193 40.4743 20.7193 40.0953 20.6439 39.3374C20.3427 39.3374 20.0414 39.3374 19.7401 39.3374Z" fill="#F4AA00"/>
<path d="M31.8643 39.3374C31.789 40.0953 31.7137 40.8533 31.789 41.687C31.789 42.1418 31.7137 42.5208 31.8643 42.9755C31.9397 43.3545 32.6929 43.3545 32.9188 43.1271L32.8435 42.824C32.8435 42.824 32.8435 42.5208 32.8435 42.3692C32.9188 42.3692 32.8435 39.7164 32.7682 39.3374C32.5422 39.3374 32.1656 39.3374 31.8643 39.3374Z" fill="#F4AA00"/>
<path d="M25.8396 34.4862C25.6136 34.562 25.1617 34.8652 25.0863 35.0926C24.9357 35.5473 25.0863 36.0021 25.011 36.3811C24.9357 37.2906 24.7851 38.5033 24.8604 39.5645C25.7642 39.5645 26.6681 39.5645 27.4966 39.5645C27.572 38.9581 27.4966 35.5473 27.1953 35.0168C27.12 34.562 26.4421 34.3346 25.8396 34.4862Z" fill="#F4AA00"/>
<path d="M25.7668 31.7578C24.411 31.9094 23.3565 33.0463 23.0553 34.1832C22.754 35.3201 23.1306 36.4571 23.7332 37.1392C23.8838 37.2908 24.0344 37.4424 24.1851 37.594L24.3357 37.5182C24.3357 37.1392 24.4864 36.836 24.411 36.4571C24.3357 36.0023 23.8085 35.6233 23.8085 35.017C23.8085 34.638 23.9591 34.1832 24.1098 33.9558C24.863 32.2883 27.5746 32.2126 28.4784 33.8042C29.0057 34.638 28.7797 35.6991 28.3278 36.4571C28.1771 36.7602 28.0265 37.9729 28.5537 37.594C30.8134 35.6991 29.081 31.3788 25.7668 31.7578Z" fill="#F4AA00"/>
<path d="M36.8372 13.1124C36.6865 13.1124 36.6112 13.1124 36.4606 13.1124C36.3853 13.1124 36.2346 13.3398 36.1593 13.3398C36.1593 13.3398 35.9333 13.3398 36.084 13.264C36.5359 13.0366 37.1385 12.0513 36.7619 11.4449C36.6865 11.2933 36.6112 11.1417 36.3099 11.1417L36.2346 11.2175C36.1593 11.2933 36.084 11.2175 35.9333 11.2933C35.9333 11.2933 35.9333 11.4449 35.858 11.4449C35.7074 11.5965 35.4814 11.6723 35.4061 11.8239C35.632 11.4449 36.084 10.3838 35.7827 9.77742L35.5567 9.55004C34.8035 9.17106 34.2762 10.6112 34.1256 11.0659C34.0503 11.2175 34.2009 10.5354 34.2009 10.4596C34.2763 10.0806 34.2763 9.70162 34.2009 9.47424C34.1256 9.32265 34.2009 9.32265 34.1256 9.17106C34.0503 9.01947 33.4477 8.94368 33.2217 9.09527C33.1464 9.17106 33.0711 9.55004 32.9958 9.70162C32.8451 10.0806 32.4685 10.8385 32.0919 11.0659C32.0166 11.1417 32.0919 10.9143 32.0919 10.9143C32.1672 10.7627 32.3179 10.687 32.3932 10.6112C32.5439 10.2322 32.6192 9.32265 32.1672 9.24686C31.9413 9.17106 31.866 9.32265 31.7906 9.32265C31.0374 9.55004 31.1127 10.1564 30.6608 10.6112L30.5855 10.7627C30.4348 10.8385 30.2842 10.7627 30.1336 10.8385C30.1336 10.7627 29.9829 10.687 30.0582 10.5354L30.1336 10.4596C30.2089 10.2322 30.5102 9.62583 30.2842 9.32265C30.2842 9.24686 30.1336 9.24686 30.0582 9.24686C29.9076 9.32265 29.7569 9.47424 29.6063 9.55004C29.4557 9.62583 29.3803 9.55003 29.305 9.62583L29.2297 9.77742C29.1544 9.85321 29.0791 9.77742 29.0037 9.85321C28.8531 10.0048 28.7024 10.2322 28.5518 10.308C28.4012 10.3838 28.4012 10.308 28.2505 10.3838C28.0999 10.3838 27.9492 10.6112 27.8739 10.6112C27.7233 10.687 27.6479 10.6112 27.4973 10.687C27.2713 10.7627 26.97 10.9143 26.7441 10.9901C25.8402 11.2175 24.7857 11.2933 23.5806 11.2175C23.2793 11.2175 22.9027 11.2175 22.752 11.2175C22.5261 11.1417 22.1495 10.9901 21.9235 10.9143C21.6975 10.8385 21.5469 10.9143 21.3209 10.8385C20.869 10.687 20.2664 10.2322 19.9651 9.92901C19.8898 9.85321 19.8898 9.70162 19.8145 9.62583C19.7392 9.47424 19.5132 9.39845 19.4379 9.24686C19.3625 9.17106 19.4379 9.09527 19.3626 9.01947C19.2119 8.86788 19.0613 8.71629 18.9106 8.56471C18.76 8.33732 18.6093 7.95835 18.4587 7.73096L18.308 7.65517C18.1574 7.57938 18.1574 7.35199 18.0068 7.2762H17.9314C17.7808 7.2004 17.6302 6.89722 17.4795 6.82143C17.1029 6.51825 16.651 6.21507 16.3497 5.8361C16.2744 5.7603 16.2744 5.68451 16.2744 5.53292C16.1237 5.30554 15.8224 5.07815 15.6718 4.92656C15.5211 4.77497 15.5965 4.62339 15.4458 4.4718C15.1445 3.94123 14.6173 3.25908 14.0147 3.0317C13.7887 2.9559 13.6381 2.9559 13.3368 2.9559C13.1108 2.9559 12.8849 2.80431 12.5836 2.88011C12.433 2.88011 11.8304 3.33488 11.8304 3.48647C11.6044 4.01703 12.0563 4.4718 11.3031 4.54759C10.7759 4.62339 10.3239 4.396 10.0227 4.24441C10.0227 4.54759 10.0227 4.77497 9.87201 4.92656C9.64605 5.22974 9.1188 5.22974 8.81751 5.45713C8.74219 5.53292 8.74219 5.7603 8.74219 5.7603L8.81751 5.8361C9.1188 5.8361 9.26944 5.8361 9.4954 5.91189C9.4954 5.98769 9.4954 5.98769 9.4954 6.06348C9.4954 6.13928 8.81751 6.59405 8.74219 6.74563C8.81751 6.82143 8.89283 6.82143 8.96815 6.82143C9.26944 6.97302 9.64605 7.04881 10.0227 7.12461C9.79669 7.42779 9.57073 7.65517 9.26944 7.95835C9.26944 8.03414 9.34476 8.26153 9.34476 8.26153C10.098 8.26153 11.1525 8.26153 11.4538 8.71629C11.5291 8.86788 11.6797 9.47424 11.7551 9.70162C12.0563 10.5354 12.0563 11.2175 12.207 12.1271L12.2823 12.2786C12.2823 12.4302 12.2823 12.506 12.2823 12.6576C12.2823 12.7334 12.433 13.1124 12.5083 13.1882C12.5836 13.6429 12.6589 13.9461 12.8096 14.4767C12.9602 14.9315 13.2615 15.5378 13.4121 15.9168C13.4875 16.1442 13.4875 16.2958 13.5628 16.5231C13.6381 16.5989 13.7887 16.8263 13.8641 16.9021C13.8641 16.9779 13.8641 16.9779 13.8641 17.0537C13.9394 17.1295 14.09 17.2053 14.1654 17.3569C14.1654 17.4327 14.1654 17.5085 14.2407 17.5843C14.2407 17.6601 14.3913 17.6601 14.3913 17.6601C14.542 17.8874 14.6926 18.1906 14.8432 18.418C14.9939 18.5696 15.1445 18.6454 15.2952 18.797C15.6718 19.2517 16.0484 19.7065 16.5003 20.0855C16.8016 20.3129 17.1029 20.4645 17.4795 20.616C17.5548 20.6918 17.7055 20.8434 17.7808 20.9192C18.9859 21.6014 20.2664 22.2077 21.6975 22.5867C21.6975 22.6625 21.6975 22.7383 21.6975 22.8899L21.6222 22.9657C21.3209 23.4204 21.0196 23.6478 20.643 24.0268C20.5677 24.1026 20.4171 24.33 20.4171 24.33C20.3417 24.4058 20.2664 24.33 20.1911 24.4058C20.1911 24.4058 20.1911 24.5574 20.1911 24.6332C20.3417 24.709 20.4924 24.709 20.643 24.7848C20.643 24.8605 20.643 24.9363 20.5677 25.0121C20.4171 25.1637 20.2664 25.3911 20.1158 25.5427L20.1911 25.7701C19.8145 26.1491 18.9859 26.907 18.308 26.6796L18.1574 26.528C17.8561 26.3764 17.1782 26.1491 16.7263 26.2248C16.425 26.3006 16.3497 26.6038 16.5756 26.528V26.6038C16.199 26.6796 15.2952 26.7554 15.1445 26.907C15.1445 26.907 15.1445 27.0586 15.0692 27.0586C14.8432 27.2102 14.4666 27.1344 14.3913 27.3618C14.316 27.5134 14.2407 28.1955 14.316 28.2713C14.3913 28.3471 14.4666 28.2713 14.542 28.3471C14.7679 28.1955 14.9939 28.0439 15.1445 27.8165C15.2199 27.7407 15.2199 27.6649 15.2199 27.5134C15.6718 27.6649 15.9731 27.5892 16.5003 27.4376L16.651 27.3618C16.8016 27.3618 16.7263 27.4376 16.8769 27.4376C16.651 27.5134 16.2744 27.7407 16.199 27.8923C16.199 27.8923 16.199 28.1197 16.1237 28.1197C15.8224 28.2713 15.5211 28.0439 15.2952 28.1955V28.2713L15.2199 28.3471C15.2199 28.7261 15.2952 28.9535 15.2952 29.1808C15.3705 29.1808 15.5211 29.1808 15.5965 29.1808C15.8224 28.9535 15.9731 28.8019 16.199 28.5745C16.425 28.6503 16.5756 28.7261 16.8769 28.7261C17.1782 28.7261 17.4795 28.4229 17.7055 28.3471C18.2327 28.0439 19.1366 27.8165 20.0404 27.9681C20.2664 27.9681 20.7937 28.2713 21.0196 28.3471L21.1703 28.4987C21.3209 28.4987 21.3962 28.4987 21.5469 28.4987C21.4716 28.8777 21.2456 29.7114 21.8482 29.484C22.0741 29.4082 22.1495 29.0293 22.2248 28.7261C22.2248 28.7261 22.3754 28.4229 22.2248 28.4229C22.1495 28.1197 22.1495 27.8923 22.3001 27.5892C21.9988 27.286 21.8482 27.286 21.2456 27.2102C20.3417 27.1344 20.5677 27.0586 20.9443 26.6796C21.5469 26.1491 22.0741 25.6185 22.6767 25.0879C22.9027 25.2395 23.0533 25.3153 23.2793 25.3911C23.3546 25.0121 23.5806 24.4816 23.8819 24.33C23.9572 24.33 23.9572 24.33 24.0325 24.33C24.1831 24.4816 24.2585 24.5574 24.3338 24.6332C24.6351 24.1784 24.9364 23.7994 25.2376 23.4204C25.3883 23.1931 25.3883 23.0415 25.6143 22.9657C25.6143 22.9657 25.6143 22.9657 25.6143 22.8899C25.8402 22.8141 26.0662 22.9657 26.2921 22.9657C26.5934 22.9657 27.5726 22.8899 27.9492 22.8899C27.8739 24.0268 27.2713 24.6332 26.6688 25.3153V25.4669C26.97 25.3911 27.196 25.3911 27.5726 25.3153C27.422 25.8459 27.2713 26.6796 26.8194 26.907C26.1415 27.286 25.5389 26.6038 25.0117 26.528C24.861 26.528 24.3338 26.6038 24.2585 26.6038C24.1831 26.6038 24.1831 26.7554 24.1831 26.7554C24.1831 26.7554 24.1831 27.0586 24.2585 26.9828C24.2585 26.9828 24.4091 27.0586 24.4844 27.0586C24.6351 27.0586 24.9364 26.907 25.087 26.9828C25.1623 26.9828 25.1623 27.1344 25.1623 27.1344C24.6351 27.2102 23.2793 26.9828 22.978 27.2102C22.9027 27.286 22.978 27.5134 22.9027 27.5134C22.8273 27.5892 22.6767 27.5134 22.6014 27.5892C22.3754 27.7407 22.3754 28.1955 22.3001 28.4987C22.6014 28.7261 22.3001 28.5745 22.752 28.7261C22.9027 28.4987 23.0533 28.3471 23.1286 28.0439C23.2793 28.0439 23.204 28.1197 23.3546 28.1197C23.7312 28.1197 24.1831 27.6649 24.7857 27.8165L24.861 27.8923C24.5597 27.9681 24.2585 27.8923 23.9572 27.9681C23.5806 28.1197 23.6559 28.3471 23.5052 28.4229C23.4299 28.4229 23.3546 28.4229 23.2793 28.4229C22.978 28.4987 22.9027 28.9535 23.1286 29.2566C23.3546 29.5598 23.5052 29.3324 23.6559 29.1808C23.7312 29.105 23.6559 29.105 23.7312 28.9535C24.1831 28.9535 24.5597 28.9535 24.861 28.8777C25.3883 28.7261 25.6896 28.3471 26.2921 28.1955C26.97 28.0439 27.7986 28.1955 28.5518 28.4229C28.7024 28.4229 28.8531 28.6503 29.0037 28.6503C29.0791 28.6503 29.1544 28.6503 29.1544 28.6503C29.305 28.7261 29.3803 28.9535 29.531 28.9535C29.6816 29.0293 29.7569 28.8019 29.9829 28.8777V29.105C30.1336 29.1808 30.3595 29.1808 30.4348 29.2566L30.5102 29.3324C30.5855 29.3324 30.6608 29.3324 30.7361 29.3324C30.8115 29.105 31.0374 28.6503 30.8868 28.2713C30.8868 28.1955 30.7361 28.1197 30.7361 28.0439C30.6608 28.0439 30.5102 28.0439 30.4348 28.0439C30.4348 27.8923 30.4348 27.7407 30.4348 27.6649C30.2842 27.5892 29.9829 27.4376 29.7569 27.4376C29.3803 27.3618 29.0037 27.5134 28.8531 27.5134C28.4765 27.5134 27.8739 27.3618 27.9492 26.8312C27.9492 26.7554 28.0999 26.6038 28.1752 26.528C28.3258 26.3006 28.4765 25.9975 28.6271 25.7701C28.7024 25.6943 28.7024 25.5427 28.7778 25.4669C28.7778 25.4669 28.9284 25.4669 28.9284 25.3911L29.0037 25.5427C29.0791 25.5427 29.0791 25.5427 29.1544 25.5427C29.305 25.2395 29.4557 25.0879 29.6063 24.8605C29.6816 24.709 29.6816 24.5574 29.8323 24.4058C29.8323 24.4058 29.9829 24.4058 29.9829 24.33C30.0582 24.4816 30.1336 24.709 30.2089 24.7848C30.2842 24.8605 30.3595 24.8605 30.4348 24.8605C30.4348 24.7848 30.5855 24.709 30.5855 24.709C30.6608 24.5574 30.5855 24.1784 30.5855 24.1784C30.7361 23.6478 30.9621 23.4204 31.3387 23.1173C32.0919 23.7994 32.8451 24.4816 33.5984 25.2395C33.6737 25.3153 33.6737 25.4669 33.749 25.5427H33.8243C33.8243 25.5427 34.7282 26.4522 34.7282 26.528C34.9541 26.7554 35.0295 26.9828 35.1801 27.2102C35.1801 27.286 35.3308 27.286 35.3308 27.286C35.4061 27.4376 35.4814 27.7407 35.632 27.8923C35.7074 27.9681 36.084 28.0439 36.3099 27.9681C36.4606 27.9681 36.4606 27.8165 36.5359 27.6649C36.9878 26.7554 35.7074 25.0879 35.2554 24.6332L35.1801 24.5574C35.1048 24.4816 35.1048 24.4816 35.1048 24.4058C35.0295 24.4058 35.0295 24.33 35.0295 24.33L34.9541 24.2542L34.8788 24.1784C34.8788 24.1026 34.8035 24.1026 34.8035 24.1026C34.8035 24.1026 34.8035 24.0268 34.7282 24.0268C34.6529 23.951 34.6529 23.951 34.5775 23.7994L34.5022 23.7236C34.4269 23.6478 34.3516 23.6478 34.2763 23.572C34.2009 23.4962 34.2009 23.3447 34.1256 23.2689C34.0503 23.2689 34.0503 23.1931 34.0503 23.1931C33.975 23.1173 33.975 23.0415 33.8996 22.9657C33.8243 22.8899 33.749 22.8141 33.6737 22.7383C33.5984 22.6625 33.523 22.5867 33.4477 22.5109C33.3724 22.4351 33.2217 22.3593 33.1464 22.2077C33.0711 22.1319 33.0711 22.0561 33.0711 22.0561C32.9958 21.9804 32.9958 21.9804 32.9958 21.9804C32.5438 21.6014 32.0919 21.2982 31.5647 20.995C31.4893 20.9192 31.3387 20.7676 31.2634 20.6918C31.1881 20.6918 31.1127 20.6918 31.0374 20.6918C31.0374 20.9192 31.0374 21.1466 30.9621 21.374C30.8115 21.8288 30.0582 21.9046 29.531 21.8288C29.0037 21.753 28.6271 21.4498 28.0999 21.2982L28.0245 21.2224C27.9492 21.1466 27.8739 21.2224 27.7233 21.1466C27.6479 21.0708 27.5726 20.9192 27.422 20.8434C27.2713 20.7676 27.196 20.8434 27.0454 20.7676C26.97 20.7676 26.97 20.616 26.97 20.616C26.7441 20.4645 26.4428 20.3129 26.2168 20.1613C25.4636 19.8581 24.7104 19.7823 23.8819 19.4791C23.8065 19.4791 23.5806 19.3275 23.5052 19.2517C23.3546 19.176 23.204 19.2517 23.0533 19.176C22.978 19.176 22.8273 18.9486 22.752 18.9486C22.6767 18.9486 22.6014 18.9486 22.6014 18.9486C22.5261 18.9486 22.4507 18.797 22.3754 18.7212C21.8482 18.9486 21.6975 18.9486 21.5469 18.8728C21.2456 18.7212 21.0196 18.418 20.7183 18.1906C20.643 18.1906 20.5677 18.1906 20.4924 18.1148C20.4171 18.1148 20.4171 17.9632 20.4171 17.9632C20.2664 17.8116 20.0404 17.8116 19.9651 17.6601C19.0613 16.9021 18.3834 15.841 18.3834 14.1735L18.534 14.0977C18.6093 14.4009 18.6847 14.7799 18.76 15.1588C18.9106 15.7652 19.1366 16.3716 19.4379 16.8263C19.5132 16.9021 19.5885 16.9021 19.6638 16.9779C19.7392 17.0537 19.7392 17.0537 19.8145 17.1295C19.8898 17.2053 19.9651 17.2811 20.1158 17.3569C20.1911 17.4327 20.2664 17.5843 20.4171 17.6601C20.643 17.8116 20.7937 17.8874 21.0196 17.9632C21.1703 18.039 21.3962 18.2664 21.5469 18.418C21.6222 18.4938 21.7728 18.418 21.8482 18.4938C21.9235 18.5696 21.9235 18.6454 21.9988 18.7212C22.0741 18.7212 22.1495 18.7212 22.2248 18.7212C22.3001 18.7212 22.4507 18.8728 22.5261 18.9486C22.6767 19.0244 22.752 18.9486 22.8273 19.0244C23.3546 19.2517 25.4636 20.2371 25.7649 19.1002C25.8402 18.8728 25.8402 18.6454 25.7649 18.418H25.6143C25.6143 18.3422 25.6143 18.2664 25.6143 18.1906C25.4636 17.8874 25.087 17.6601 24.9364 17.3569C24.861 17.2811 25.0117 17.2811 25.0117 17.2811C25.087 17.3569 25.087 17.4327 25.1623 17.5085C25.2376 17.5085 25.313 17.5085 25.3883 17.5843C25.3883 17.5843 25.3883 17.7359 25.4636 17.7359C25.5389 17.8116 25.6143 17.8116 25.7649 17.8116C25.9155 17.9632 26.0662 18.1906 26.2168 18.2664C26.4428 18.418 26.6688 18.4938 26.8947 18.5696L27.0454 18.7212C27.1207 18.7212 27.196 18.7212 27.2713 18.7212V18.797C27.4973 18.8728 27.9492 18.6454 28.1752 18.5696C28.2505 18.4938 28.4012 18.4938 28.4765 18.4938C28.5518 18.418 28.5518 18.2664 28.5518 18.1906C28.8531 17.2053 28.1752 16.3716 27.6479 15.9168C28.1752 16.1442 29.4557 17.3569 30.2842 17.1295C30.8115 16.9779 30.5102 15.9168 30.3595 15.6136C30.2089 15.3862 29.9829 15.2346 29.8323 15.083C29.7569 15.0072 29.9076 15.0072 29.9076 15.0072L29.9829 15.083C30.2089 15.2346 30.5855 15.5378 30.8868 15.5378C32.1672 15.7652 31.414 14.5525 31.1881 14.1735C31.9413 14.7041 33.6737 16.5231 35.2554 15.9168L35.3308 15.841C35.4814 15.7652 35.4814 15.841 35.632 15.7652C36.084 15.462 35.858 15.083 35.632 14.7041C36.084 14.6283 36.3853 14.4767 36.6865 14.2493C36.7619 14.1735 36.7619 14.0219 36.8372 14.0219H36.9125C37.0632 13.7945 37.0632 13.5671 37.0632 13.264C36.9125 13.3398 36.9125 13.1882 36.8372 13.1124ZM12.8096 4.396L12.6589 4.32021L12.5836 4.24441C12.5836 3.86544 12.5836 3.86544 12.6589 3.63806L12.8096 3.56226C12.8849 3.63806 12.9602 3.63806 13.1108 3.78964V3.94123C13.1108 3.94123 12.9602 4.32021 12.9602 4.396H12.8096ZM13.9394 4.85077C13.6381 4.85077 13.4121 4.85077 13.2615 4.77497C13.0355 4.62339 13.1862 4.396 13.2615 4.16862H13.4121C13.4121 4.16862 13.7134 4.32021 13.7887 4.396C13.8641 4.4718 13.9394 4.62339 13.9394 4.69918V4.85077Z" fill="#E63312"/>
<path d="M32.6962 20.1611C32.9975 20.3885 33.2988 20.4643 33.6001 20.6917C34.1273 21.0707 34.5793 21.677 34.9559 22.1318C35.0312 22.2834 35.2572 22.3592 35.3325 22.435C35.6338 22.8139 35.7844 23.1929 36.0104 23.5719C36.0104 23.6477 36.161 23.6477 36.161 23.6477C36.2364 23.7993 36.2364 23.8751 36.3117 24.0267C36.387 24.1782 36.613 24.4056 36.6883 24.5572C36.9896 25.2394 37.2909 25.9215 37.1402 26.8311C37.0649 26.8311 36.9142 26.9069 36.8389 26.9069C36.5376 26.6795 36.5376 26.4521 36.387 26.0731C36.2364 25.7699 35.9351 25.5426 35.7844 25.3152C35.6338 25.0878 35.6338 24.9362 35.4831 24.7088C35.4078 24.5572 35.1818 24.4814 35.1065 24.3298C35.0312 24.254 35.1065 24.1782 35.0312 24.1025C34.9559 24.0267 34.7299 23.9509 34.7299 23.7993V23.7235C34.6546 23.6477 34.4286 23.5719 34.4286 23.4203V23.4961C34.3533 23.4203 34.1273 23.3445 34.1273 23.1929V23.1171C34.052 22.9655 33.2988 22.435 33.2235 22.3592V22.2834C33.0728 22.1318 32.9222 22.1318 32.7716 21.9802C32.3949 21.677 32.0183 21.3738 31.5664 21.0707L31.6417 20.9949C31.717 20.9191 31.8677 20.9949 31.943 20.9949C32.2443 20.8433 32.5456 20.3885 32.6962 20.1611Z" fill="#E63312"/>
<path d="M34.2772 18.9487C35.4823 19.7067 36.5368 21.3742 37.1394 22.6627C37.2147 22.7385 37.2147 22.7385 37.2147 22.8143C37.2147 22.8901 37.2147 22.9658 37.29 23.0416C37.29 23.0416 37.29 23.0416 37.3654 23.0416L37.4407 23.1174V23.1932L37.516 23.269V23.4206C37.516 23.4964 37.6666 23.5722 37.6666 23.648C37.742 23.8754 38.3445 26.0734 37.3654 25.4671C37.2147 25.3913 37.1394 24.8607 37.0641 24.7091L36.9887 24.6333C36.7628 24.027 36.5368 23.5722 36.1602 23.0416C36.0096 22.8901 35.8589 22.7385 35.7083 22.5869C35.5576 22.3595 35.4823 22.1321 35.2563 21.9047C35.1057 21.7531 34.8797 21.6773 34.8044 21.5257V21.45C34.8044 21.3742 34.5031 21.1468 34.5031 21.1468C34.0512 20.7678 33.6746 20.3888 33.2227 20.0856C33.2227 20.0856 33.2227 19.9341 33.298 19.9341C33.4486 19.8583 33.5239 19.9341 33.7499 19.8583L33.8252 19.7825C34.0512 19.6309 34.2772 19.6309 34.2772 19.3277C34.2772 19.2519 34.2772 19.1761 34.2772 19.1003V18.9487Z" fill="#E63312"/>
<path d="M35.3307 17.4326C35.4814 17.4326 35.9333 17.8874 36.0086 17.9632C37.4398 19.1759 39.1722 21.2223 38.4189 23.8752C38.193 23.7994 38.0423 23.8752 37.967 23.7994C37.8917 23.7236 37.8917 23.4962 37.8917 23.3446C37.8164 23.1172 37.5904 22.8898 37.5151 22.6624C37.4398 22.5109 37.4398 22.3593 37.3644 22.2077L37.2891 22.1319C37.2138 21.9803 37.2138 21.8287 37.1385 21.6771L36.9878 21.6013C36.9125 21.4497 36.9125 21.2981 36.8372 21.1466C36.8372 21.0708 36.6865 21.0708 36.6865 21.0708C36.5359 20.9192 36.5359 20.6918 36.3852 20.5402H36.1593V20.4644C36.1593 20.3886 35.9333 20.237 35.858 20.1612C35.4061 19.5549 34.9541 19.0243 34.3516 18.6453L34.4269 18.5695C34.7282 18.4937 34.8035 18.4937 35.0295 18.3422C35.3307 18.1148 35.1801 17.9632 35.2554 17.5842C35.2554 17.4326 35.2554 17.4326 35.3307 17.4326Z" fill="#E63312"/>
<path d="M31.865 15.2349C32.1663 15.4622 32.3922 15.7654 32.7688 15.917C32.9948 16.0686 33.1455 15.9928 33.4467 16.1444C33.5221 16.1444 33.5974 16.296 33.5974 16.296C33.6727 16.296 33.6727 16.296 33.748 16.296L33.8234 16.3718C33.8987 16.3718 33.974 16.3718 34.0493 16.4476C34.3506 16.5992 34.6519 16.9781 34.8779 17.2813C34.9532 17.3571 35.1038 17.5087 35.1038 17.5845C35.1791 18.1909 34.5766 18.2666 34.0493 18.2666C34.2 19.5552 33.748 19.631 32.3922 19.4794C32.4676 20.8437 31.639 20.6163 30.5845 20.4647C30.5845 20.9195 30.5845 21.2984 30.3585 21.6016C30.2832 21.6774 30.1326 21.829 30.0573 21.829C29.9066 21.829 29.6807 21.829 29.53 21.829C28.8521 21.7532 28.4002 21.45 27.8729 21.1468C27.7223 21.071 27.5716 21.071 27.421 20.9953C27.3457 20.9195 27.195 20.7679 27.1197 20.6921C26.5925 20.3889 26.0652 20.1615 25.6133 19.8583C26.0652 19.5552 26.3665 19.252 26.2912 18.494C26.3665 18.494 26.3665 18.494 26.4418 18.494C26.5171 18.494 26.5171 18.6456 26.5925 18.7214C26.7431 18.7972 26.9691 18.9488 27.0444 19.0246C27.7223 19.252 28.5508 19.1004 28.8521 18.5698C28.9274 18.4182 28.8521 18.4182 28.9274 18.2666L29.0028 18.1909C29.0781 17.8119 29.0028 17.4329 28.9274 17.1297C29.2287 17.2813 30.0573 17.6603 30.5845 17.4329C30.6598 17.4329 30.6598 17.2813 30.6598 17.2813C30.7352 17.2813 30.8105 17.2813 30.8105 17.2055C30.8105 17.1297 30.8105 17.0539 30.8105 16.9781C30.8105 16.8265 30.9611 16.675 30.8858 16.3718L30.8105 16.1444C30.8105 15.9928 30.8858 15.917 30.8858 15.8412C31.4131 15.9928 31.7143 15.8412 31.865 15.2349Z" fill="#E63312"/>
<path d="M10.3234 2.04634C10.7754 1.97054 11.3779 2.04634 11.7546 2.19793C11.8299 2.19793 11.9805 2.34951 12.0558 2.42531C12.1312 2.5011 12.2065 2.5011 12.3571 2.5011C12.2818 2.5769 11.6039 3.10746 11.6039 3.10746C11.6039 3.18326 11.6039 3.18326 11.6039 3.25905L11.5286 3.33484C11.4533 3.56223 11.6039 3.9412 11.5286 4.16859C11.5286 4.24438 11.3779 4.24438 11.3026 4.32017C11.0013 4.32017 10.8507 4.32017 10.6247 4.24438C10.4741 4.24438 9.04297 3.41064 9.04297 3.33484C9.04297 3.25905 9.04297 3.18326 9.04297 3.10746C9.4949 3.18326 9.72086 3.18326 10.2481 3.18326C10.1728 3.18326 10.4741 3.25905 10.5494 3.25905V3.18326C10.4741 3.10746 10.3988 3.10746 10.2481 3.10746C10.1728 3.03167 10.0975 2.88008 10.0222 2.80428C9.87151 2.72849 9.72086 2.72849 9.57022 2.5769C9.4949 2.5011 9.4949 2.42531 9.4949 2.34951C9.64554 2.19793 9.94683 2.04634 10.3234 2.04634Z" fill="#E63312"/>
<path d="M36.5369 1.97061C37.968 1.81903 36.8382 3.25912 36.6122 3.5623C36.4616 3.86548 36.3109 4.24445 36.1603 4.62343C36.6122 4.32025 36.6875 3.94127 36.9888 3.5623C37.0641 3.41071 37.2148 3.33492 37.2901 3.18333C37.4408 2.88015 37.6667 2.34959 37.968 2.198C38.4199 2.04641 38.9472 2.1222 39.3238 2.27379C40.3783 2.65277 39.3238 3.6381 39.0225 4.01707C38.7212 4.32025 38.5706 4.62343 38.3446 5.0024C38.2693 5.07819 38.1187 5.07819 38.1187 5.15399C38.0433 5.30558 38.1187 5.38137 38.1187 5.45717C38.4199 5.22978 38.4953 5.07819 38.7212 4.77502H38.7965V4.62343C38.8719 4.47184 39.1732 4.32025 39.2485 4.24445C39.3238 4.16866 39.3238 4.01707 39.3991 3.94127C39.4744 3.86548 39.6251 3.78969 39.7004 3.71389V3.5623H39.7757C39.8511 3.41071 40.1523 2.95594 40.303 2.88015C40.5289 2.80436 40.9809 2.95594 41.1315 2.95594L41.2068 3.03174C41.4328 3.18333 41.7341 3.25912 41.8847 3.48651C42.3367 4.24445 41.4328 5.0024 41.0562 5.30558C40.6043 5.68455 40.2277 6.21511 39.7004 6.59409C39.7757 6.66988 39.5498 6.82147 39.8511 6.82147C40.0017 6.82147 40.1523 6.51829 40.303 6.3667C40.6796 5.98773 41.0562 5.68455 41.4328 5.38137C41.5835 5.22978 41.7341 5.0024 41.8847 4.92661C42.0354 4.85081 42.3367 4.77502 42.5626 4.85081C42.638 4.85081 42.7133 5.07819 42.7886 5.15399C43.0899 5.53296 43.3158 6.21511 43.3912 6.89727C43.3912 7.12465 43.3912 7.35203 43.3159 7.50362C43.3159 7.50362 43.3159 7.50362 43.2405 7.50362C43.1652 7.50362 43.0899 7.65521 43.0146 7.73101C42.8639 7.8068 42.7133 7.8068 42.5626 7.8068C42.0354 7.95839 41.2822 8.18577 40.8302 8.48895C40.7549 8.48895 40.7549 8.64054 40.6796 8.71634C40.7549 8.71634 40.9056 8.71634 40.9809 8.71634L41.0562 8.64054C41.5081 8.48895 43.3912 7.73101 43.6925 8.18577C43.8431 8.48895 43.8431 9.32269 43.8431 9.62587C43.8431 9.92905 43.9937 10.2322 43.7678 10.5354C43.5418 10.9144 42.7886 10.687 42.3367 10.8386L42.2613 10.9144C41.9601 10.9902 41.6588 10.7628 41.2822 10.9144C41.2822 10.9144 41.2068 10.9144 41.2068 10.9902V11.1418C41.8094 11.1418 43.3912 10.8386 43.6171 11.3691C43.6925 11.5207 43.6171 11.6723 43.6925 11.8239C43.6925 11.8239 43.8431 12.5819 43.6925 12.4303C43.6925 12.8092 43.6171 13.3398 43.3159 13.4156C42.8639 13.5672 42.3367 13.1124 41.8847 13.1124C41.7341 13.1124 41.4328 13.1882 41.2068 13.1882V13.3398C41.5835 13.3398 43.1652 13.643 43.3159 14.022C43.4665 14.4009 43.2405 15.4621 43.0899 15.7652C43.0146 15.9926 42.8639 16.2958 42.7133 16.4474C42.5626 16.3716 42.4873 16.4474 42.412 16.3716C42.3367 16.3716 42.3367 16.22 42.2613 16.1442C42.186 16.1442 42.1107 16.1442 42.0354 16.0684C41.9601 16.0684 41.9601 15.9168 41.9601 15.841C41.6588 15.6136 41.2068 15.5379 40.8302 15.3863C40.6796 15.3105 40.5289 15.1589 40.4536 15.1589C40.3783 15.1589 40.2277 15.1589 40.1523 15.1589C39.9264 15.2347 40.9809 15.6894 41.0562 15.7652C41.4328 15.9168 41.6588 16.0684 41.9601 16.22C42.1107 16.2958 42.412 16.4474 42.412 16.599C42.5626 17.1295 41.8847 18.1149 41.6588 18.3423C41.5081 18.2665 41.4328 18.3423 41.3575 18.2665C41.1315 18.1907 40.9809 17.6601 40.7549 17.5085C40.3783 17.2053 39.7004 16.7506 39.1732 16.599C39.1732 16.6748 39.0978 16.6748 39.1732 16.8264C39.2485 16.9022 39.6251 17.0537 39.7757 17.1295C40.303 17.4327 40.6796 17.8117 41.0562 18.1907C41.1315 18.2665 41.3575 18.3423 41.3575 18.4938C41.3575 18.6454 41.3575 18.9486 41.3575 19.1002C41.3575 19.2518 41.1315 19.4792 41.0562 19.6308C41.0562 19.7066 41.0562 19.7066 41.0562 19.7823C40.9809 19.9339 40.5289 20.3887 40.3783 20.3887C39.9264 20.4645 39.8511 20.1613 39.7004 19.9339C39.5498 19.7066 39.2485 19.4792 39.0978 19.2518C39.0225 19.176 39.0225 19.0244 38.9472 18.9486C38.6459 18.4938 38.194 18.0391 37.742 17.6601C37.6667 17.5843 37.6667 17.5085 37.5914 17.4327C37.5161 17.4327 37.4408 17.4327 37.3654 17.3569C37.2901 17.3569 37.2901 17.2053 37.2901 17.2053C36.8382 16.9022 36.3109 16.9022 35.7837 16.6748C35.5577 16.599 35.3317 16.3716 35.1058 16.22L35.2564 15.9926C35.4824 15.841 35.7084 15.9168 35.9343 15.7652C36.3863 15.5379 36.3109 15.0831 36.085 14.7041C36.4616 14.4767 37.0641 14.1735 37.2901 13.7188C37.5161 13.1882 37.2901 12.7335 36.9888 12.4303C37.1395 11.8239 37.4408 11.4449 37.0641 10.9144C36.8382 10.6112 36.6875 10.5354 36.1603 10.6112C36.2356 10.0806 36.1603 9.32269 35.859 9.09531C35.633 8.94372 35.1058 8.94372 34.8798 9.09531C34.8045 9.1711 34.8045 9.32269 34.7292 9.39849H34.6539C34.5032 8.71634 34.3526 8.48895 33.5993 8.64054C33.3734 8.64054 33.2981 8.64054 33.2227 8.71634L32.9968 9.2469H32.8461C32.8461 9.2469 32.8461 9.09531 32.7708 9.01951C32.7708 8.94372 32.4695 8.71634 32.3942 8.71634C31.3397 8.41316 31.0384 9.77746 30.6618 10.308C30.6618 10.308 30.5112 10.308 30.4358 10.308C30.5112 10.2322 30.3605 10.2322 30.3605 10.2322C30.2852 9.85326 30.7371 9.47428 30.6618 8.94372C30.6618 8.94372 30.5112 8.79213 30.5112 8.71634C30.4358 8.71634 30.3605 8.56475 30.1345 8.64054C29.8333 8.71634 29.306 9.2469 29.08 9.39849C28.5528 9.77746 27.9502 10.0806 27.3476 10.308C27.1217 9.47428 27.1217 8.33736 27.5736 7.57942C27.6489 7.42783 27.8749 7.27624 27.9502 7.12465C28.1009 6.89726 28.3268 6.59409 28.5528 6.51829C28.7034 6.4425 28.7788 6.51829 28.9294 6.4425C28.9294 6.51829 28.9294 6.59409 29.0047 6.59409C29.0047 7.20044 28.9294 7.65521 28.8541 8.18577H28.9294C29.1554 7.50362 29.08 6.3667 29.3813 5.76035C29.4567 5.60876 29.6826 5.53296 29.7579 5.38137L29.8333 5.15399C29.9086 5.07819 29.9839 5.15399 30.0592 5.07819C30.1346 5.0024 30.2099 4.85081 30.3605 4.77502C30.4358 4.77502 30.5112 4.77502 30.5865 4.77502L30.6618 4.92661C30.7371 5.30558 30.5865 5.76035 30.5865 5.98773C30.5112 6.29091 30.5112 6.51829 30.4358 6.82147C30.5112 6.82147 30.6618 6.74568 30.6618 6.74568C31.0384 5.53296 30.7371 4.09286 31.9423 3.6381C32.9968 3.18333 32.3189 4.62343 32.2436 5.07819C32.2436 5.22978 32.2436 5.30558 32.2436 5.45717H32.3942C32.9968 3.86548 32.6955 2.88015 34.5785 2.50118C34.6539 2.65277 34.8045 2.80436 34.7292 3.18333C34.7292 3.25912 34.5032 3.41071 34.4279 3.48651C34.4279 3.5623 34.4279 3.6381 34.4279 3.6381C34.4279 3.78969 34.2019 3.94128 34.1266 4.09286C33.976 4.39604 33.976 4.54763 33.976 5.0024H34.0513C34.1266 4.9266 34.0513 4.85081 34.1266 4.69922C34.1266 4.69922 34.2019 4.69922 34.2019 4.62343C34.2019 4.54763 34.2019 4.47184 34.2019 4.39604L34.3526 4.24445C34.4279 4.09286 34.3526 4.01707 34.4279 3.94127C34.5785 3.6381 34.8045 3.25912 34.9551 3.03174L35.1811 2.65277C35.1811 2.57697 35.1811 2.50118 35.1811 2.50118H35.4071V2.42538C35.7084 2.27379 36.085 1.97061 36.5369 1.97061Z" fill="#E63312"/>
</svg>
