<svg width="1654" height="582" viewBox="0 0 1654 582" fill="none" xmlns="http://www.w3.org/2000/svg">
<g clip-path="url(#clip0_26_3)">
<path d="M610.301 121.433C595.435 121.433 594.816 122.138 594.816 132.717V182.082C594.816 218.754 596.055 223.691 613.397 225.806L622.069 227.217C623.927 228.627 623.308 234.974 621.449 235.679C604.726 234.974 594.197 234.269 582.428 234.269C569.421 234.269 558.892 234.974 546.504 235.679C544.646 234.269 544.027 229.332 545.885 227.217L550.84 225.806C568.183 222.28 568.802 218.754 568.802 182.082V55.142C568.802 18.4703 566.324 12.1233 550.84 10.7128L542.788 10.0076C540.93 8.59716 541.549 2.25015 543.407 1.54492C558.273 1.54492 568.802 2.25015 582.428 2.25015C594.197 2.25015 604.726 1.54492 618.353 1.54492C620.211 2.25015 620.83 8.59716 618.972 10.0076L613.397 10.7128C595.435 12.8285 594.816 17.7651 594.816 55.142V95.3397C594.816 105.918 595.435 106.623 610.301 106.623H698.872C713.737 106.623 714.357 106.623 714.357 95.3397V55.142C714.357 18.4703 713.737 12.8285 695.775 10.7128L690.201 10.0076C688.343 8.59716 688.962 2.25015 690.82 1.54492C705.066 2.25015 715.596 2.25015 727.983 2.25015C739.751 2.25015 750.281 1.54492 764.527 1.54492C766.385 2.25015 767.004 8.59716 765.146 10.0076L758.952 10.7128C740.99 12.8285 740.371 17.7651 740.371 55.142V182.082C740.371 218.754 740.99 223.691 758.952 225.806L766.385 227.217C768.243 228.627 767.624 234.974 765.766 235.679C750.9 234.974 740.371 234.269 728.603 234.269C716.215 234.269 705.066 234.269 691.44 235.679C689.582 234.269 688.962 229.332 690.82 227.217L696.395 225.806C714.976 222.985 714.357 218.754 714.976 182.082V132.717C714.976 122.138 714.357 121.433 699.492 121.433H610.301Z" fill="black"/>
<path d="M853.098 162.337C857.434 160.221 858.053 157.4 858.053 152.464L858.673 136.244C858.673 123.55 855.576 105.919 836.375 105.919C827.704 105.919 817.174 110.855 816.555 121.434C816.555 127.076 815.935 131.307 813.458 133.423C809.122 137.654 800.451 139.77 796.115 139.77C793.638 139.77 791.78 138.359 791.78 134.833C791.78 116.497 826.465 91.8145 849.382 91.8145C871.68 91.8145 882.209 106.624 881.59 132.717L879.732 194.072C879.112 210.292 881.59 224.397 893.978 224.397C897.074 224.397 899.552 223.691 901.41 222.281C902.649 221.576 904.507 220.165 905.126 220.165C906.365 220.165 906.985 222.281 906.985 224.397C906.985 225.807 896.455 239.911 880.971 239.911C873.538 239.911 866.105 237.091 861.15 229.333C859.912 227.217 858.053 224.397 856.195 224.397C854.337 224.397 850.621 227.217 844.427 231.449C837.614 235.68 830.801 239.911 822.129 239.911C813.458 239.911 806.025 237.091 800.451 232.154C794.876 226.512 791.16 217.344 791.16 207.471C791.16 194.072 796.735 185.609 816.555 177.852L853.098 162.337ZM833.898 223.691C840.091 223.691 849.382 218.755 852.479 215.229C856.195 210.997 856.195 206.061 856.195 199.008L856.815 178.557C856.815 175.031 855.576 174.326 853.718 174.326C851.86 174.326 846.905 175.736 841.33 177.852C823.368 184.904 814.077 189.841 814.077 203.945C814.697 208.882 818.413 223.691 833.898 223.691Z" fill="black"/>
<path d="M937.953 134.127C937.953 120.728 937.953 118.612 929.901 112.265L927.423 110.149C926.185 108.739 926.185 105.213 928.043 103.802C934.856 100.981 952.818 91.8135 959.012 86.877C960.251 86.877 961.489 87.5822 962.109 88.9926C961.489 96.7501 961.489 102.392 961.489 105.213C961.489 107.328 962.728 108.739 964.586 108.739C977.593 99.571 991.839 91.1083 1007.94 91.1083C1033.34 91.1083 1043.87 110.855 1043.87 134.832V195.482C1043.87 220.87 1044.49 224.396 1055.64 225.806L1062.45 227.217C1064.31 228.627 1064.31 234.974 1061.83 235.679C1052.54 234.974 1043.87 234.269 1032.72 234.269C1021.57 234.269 1012.28 234.269 1004.23 235.679C1002.37 234.269 1001.75 228.627 1003.61 227.217L1009.18 225.806C1020.33 223.691 1020.95 220.87 1020.95 195.482V143.295C1020.95 123.549 1012.9 108.739 991.839 108.739C980.071 108.739 970.161 114.381 965.825 120.728C962.109 126.37 961.489 131.306 961.489 141.884V195.482C961.489 220.87 962.109 223.691 973.258 225.806L978.832 227.217C980.69 228.627 980.071 234.974 978.213 235.679C970.161 234.974 960.87 234.269 950.341 234.269C939.192 234.269 929.901 234.269 921.23 235.679C919.371 234.269 918.752 228.627 920.61 227.217L926.804 225.806C937.953 224.396 938.572 220.87 938.572 195.482V134.127H937.953Z" fill="black"/>
<path d="M1103.33 134.127C1103.33 120.728 1103.33 118.612 1095.28 112.265L1092.8 110.149C1091.56 108.739 1091.56 105.213 1092.8 103.802C1099.61 100.981 1117.57 91.8135 1124.39 86.8769C1126.25 86.8769 1127.48 87.5821 1127.48 88.9926C1126.86 100.981 1126.25 117.907 1126.25 132.716V196.187C1126.25 221.575 1126.86 225.101 1138.01 226.511L1144.21 227.922C1146.07 229.332 1146.07 235.679 1143.59 236.384C1134.3 235.679 1125.63 234.974 1114.48 234.974C1103.33 234.974 1094.04 234.974 1085.37 236.384C1083.51 234.974 1082.89 229.332 1084.75 227.922L1090.94 226.511C1102.09 225.101 1102.71 221.575 1102.71 196.187V134.127H1103.33ZM1128.72 19.8806C1128.72 31.8694 1121.29 37.5112 1112.62 37.5112C1103.33 37.5112 1097.13 29.7537 1097.13 20.5858C1097.13 9.30224 1104.57 2.25 1113.86 2.25C1123.15 2.25 1128.72 10.0075 1128.72 19.8806Z" fill="black"/>
<path d="M1185.71 134.127C1185.71 120.728 1185.71 118.612 1177.65 112.265L1175.18 110.149C1173.94 108.739 1173.94 105.213 1175.18 103.802C1181.99 100.981 1199.95 91.8135 1206.15 86.877C1207.39 86.877 1209.24 87.5822 1209.86 88.9926C1209.24 96.7501 1209.24 102.392 1209.24 105.213C1209.24 107.328 1210.48 108.739 1212.34 108.739C1225.35 99.571 1239.59 91.1083 1255.7 91.1083C1281.09 91.1083 1291.62 110.855 1291.62 134.832V195.482C1291.62 220.87 1292.24 224.396 1303.39 225.806L1310.2 227.217C1312.06 228.627 1312.06 234.974 1309.58 235.679C1300.29 234.974 1291.62 234.269 1280.47 234.269C1269.32 234.269 1260.03 234.269 1251.98 235.679C1250.12 234.269 1249.5 228.627 1251.36 227.217L1256.94 225.806C1268.08 223.691 1268.7 220.87 1268.7 195.482V143.295C1268.7 123.549 1260.65 108.739 1239.59 108.739C1227.82 108.739 1217.91 114.381 1213.58 120.728C1209.86 126.37 1209.24 131.306 1209.24 141.884V195.482C1209.24 220.87 1209.86 223.691 1221.01 225.806L1226.59 227.217C1229.06 228.627 1228.44 234.974 1225.97 235.679C1217.91 234.974 1208.62 234.269 1198.09 234.269C1186.95 234.269 1177.65 234.269 1168.98 235.679C1167.13 234.269 1166.51 228.627 1168.36 227.217L1174.56 225.806C1185.71 224.396 1186.33 220.87 1186.33 195.482V134.127H1185.71Z" fill="black"/>
<path d="M1458.85 103.803C1461.95 105.214 1461.33 117.203 1457 117.908H1434.7C1435.32 123.55 1435.32 129.897 1435.32 135.538C1435.32 159.516 1422.93 191.251 1383.29 191.251C1377.71 191.251 1373.38 190.546 1369.66 189.841C1365.95 191.956 1356.04 199.008 1356.04 208.882C1356.04 216.639 1362.85 223.691 1377.71 223.691C1388.24 223.691 1400.63 222.986 1414.26 222.986C1431.6 222.986 1457.61 226.512 1457.61 261.773C1457.61 299.855 1421.07 328.064 1380.81 328.064C1343.03 328.064 1329.4 304.792 1329.4 287.161C1329.4 281.52 1330.64 277.288 1332.5 274.467C1337.45 268.12 1346.13 258.952 1353.56 251.195C1356.04 248.374 1358.51 244.848 1356.04 242.732C1344.27 239.206 1333.74 227.217 1333.74 215.229C1333.74 213.113 1334.98 212.408 1338.07 209.587C1343.03 206.061 1349.22 199.714 1354.18 193.367C1356.04 191.251 1357.27 188.43 1357.27 187.02C1346.75 180.673 1334.36 167.273 1334.36 144.706C1334.36 114.382 1357.27 91.8145 1384.53 91.8145C1396.3 91.8145 1406.83 95.3406 1414.26 98.8667C1424.17 103.803 1426.03 104.508 1432.84 104.508H1458.85V103.803ZM1394.44 246.258C1384.53 246.258 1372.14 246.964 1367.8 249.785C1360.37 254.721 1352.94 266.005 1352.94 279.404C1352.94 298.445 1365.95 313.96 1394.44 313.96C1421.69 313.96 1440.27 296.329 1440.27 276.583C1440.27 255.426 1427.26 246.258 1404.97 246.258H1394.44ZM1413.02 145.411C1413.02 121.434 1404.35 101.688 1385.77 101.688C1370.9 101.688 1359.75 117.203 1359.75 141.18C1359.75 165.863 1372.76 182.083 1387.62 182.083C1404.97 182.083 1413.02 167.273 1413.02 145.411Z" fill="black"/>
<path d="M1502.21 144.705C1494.16 144.705 1494.16 145.41 1494.16 153.873C1494.16 189.134 1512.12 219.458 1545.57 219.458C1555.48 219.458 1564.15 215.932 1574.06 202.533C1577.16 201.123 1579.01 203.238 1579.63 206.764C1569.72 230.742 1547.43 239.205 1531.32 239.205C1511.5 239.205 1495.4 229.332 1486.73 215.932C1477.43 202.533 1473.72 185.608 1473.72 170.093C1473.72 127.074 1498.49 90.4023 1535.66 90.4023C1562.29 90.4023 1579.63 110.854 1579.63 132.011C1579.63 136.947 1579.01 139.768 1578.39 141.179C1577.77 143.294 1573.44 143.294 1560.43 143.294H1502.21V144.705ZM1521.41 134.126C1544.33 134.126 1551.14 132.716 1553.62 130.6C1554.24 129.895 1555.48 128.484 1555.48 124.253C1555.48 114.38 1549.9 102.391 1531.94 102.391C1513.98 102.391 1497.87 121.432 1497.87 132.716C1497.87 133.421 1497.87 134.126 1500.35 134.126H1521.41Z" fill="black"/>
<path d="M557.033 359.8C557.033 339.349 557.033 337.233 547.743 330.886L544.646 328.77C543.407 328.065 543.407 323.128 544.646 321.718C552.078 318.897 566.944 313.96 578.092 306.908C579.331 306.908 580.57 307.613 581.189 309.024C580.57 319.602 580.57 337.233 580.57 352.748V473.341C580.57 477.572 581.189 478.278 586.144 478.278C592.958 478.278 598.532 474.752 607.203 464.878L619.591 449.363C628.262 438.785 630.121 435.259 630.121 433.143C630.121 431.028 628.882 430.322 623.307 429.617L615.875 428.912C612.778 427.502 612.778 421.155 615.875 420.449H622.688C636.314 420.449 654.276 419.744 671.619 417.628C673.477 418.334 674.097 424.681 672.238 426.091L662.328 428.207C656.135 429.617 651.179 433.143 643.128 440.196C631.359 450.774 620.83 463.468 615.255 469.815C611.539 473.341 611.539 475.457 612.778 478.278C617.733 486.035 622.688 493.087 633.217 506.487C644.986 522.002 656.135 535.401 662.328 542.453C666.664 546.684 672.858 548.8 678.432 550.211L682.768 550.916C685.246 552.326 684.626 558.673 682.149 559.378C673.477 558.673 662.948 557.968 653.038 557.968C640.65 557.968 630.121 558.673 620.83 559.378C618.352 557.968 618.352 552.326 620.21 550.916L625.785 549.505C630.12 548.8 633.217 548.095 633.217 545.979C633.217 543.863 631.979 541.748 628.262 536.106L595.435 492.382C592.958 488.856 589.241 487.446 586.144 487.446C580.57 487.446 580.57 488.151 580.57 499.434V518.475C580.57 543.863 581.189 547.39 592.338 548.8L599.771 550.211C602.248 551.621 601.01 557.968 599.151 558.673C589.241 557.968 579.951 557.263 569.421 557.263C558.272 557.263 548.981 557.968 539.691 558.673C537.833 557.263 537.213 551.621 539.691 550.211L546.504 548.8C557.653 546.684 558.272 543.863 558.272 518.475V359.8H557.033Z" fill="black"/>
<path d="M820.89 487.443C820.89 531.167 794.256 562.902 755.855 562.902C720.55 562.902 692.678 534.693 692.678 490.264C692.678 445.835 721.789 414.1 758.332 414.1C793.018 414.805 820.89 444.424 820.89 487.443ZM754.616 425.383C734.176 425.383 719.311 447.245 719.311 486.032C719.311 517.768 731.699 552.324 758.952 552.324C786.204 552.324 794.256 519.883 794.256 493.085C794.256 463.465 783.727 425.383 754.616 425.383Z" fill="black"/>
<path d="M1029 468.405C1029 444.427 1019.71 432.438 1000.51 432.438C988.743 432.438 979.453 438.08 975.117 444.427C971.401 449.363 970.781 452.89 970.781 465.584V519.181C970.781 544.569 971.401 548.095 982.55 549.505L988.743 550.916C990.602 552.326 990.601 558.673 988.124 559.379C978.833 558.673 970.162 557.968 959.013 557.968C947.864 557.968 939.812 558.673 931.141 559.379C929.283 557.968 928.663 552.326 930.521 550.916L936.096 549.505C947.245 547.39 947.864 544.569 947.864 519.181V468.405C947.864 445.132 938.573 432.438 919.373 432.438C906.985 432.438 898.314 438.785 893.359 445.132C890.262 449.364 889.023 453.595 889.023 464.878V519.181C889.023 544.569 889.642 547.39 900.791 549.505L906.366 550.916C908.224 552.326 908.224 558.673 905.746 559.379C897.694 558.673 888.403 557.968 877.874 557.968C866.725 557.968 857.434 558.673 848.144 559.379C846.286 557.968 845.666 552.326 847.524 550.916L854.957 549.505C866.106 547.39 866.725 544.569 866.725 519.181V457.826C866.725 444.427 866.725 442.311 858.673 435.964L856.196 433.849C854.957 432.438 854.957 428.912 856.196 427.502C863.009 424.681 880.971 415.513 887.165 410.576C888.403 410.576 890.262 411.281 890.262 412.692C889.642 420.449 889.642 426.091 889.642 428.912C889.642 431.028 890.881 432.438 892.739 432.438C904.507 423.27 918.753 414.808 933.618 414.808C949.103 414.808 957.774 421.155 966.446 435.259C968.923 435.964 971.401 434.554 973.878 432.438C986.266 422.565 1001.13 414.808 1016 414.808C1040.77 414.808 1052.54 433.849 1052.54 458.531V519.181C1052.54 544.569 1053.16 548.095 1064.31 549.505L1071.74 550.916C1073.6 552.326 1073.6 558.673 1071.12 559.379C1061.21 558.673 1051.92 557.968 1041.39 557.968C1030.24 557.968 1022.19 558.673 1013.52 559.379C1011.66 557.968 1011.04 552.326 1012.9 550.916L1018.47 549.505C1029.62 547.39 1030.24 544.569 1030.24 519.181V468.405H1029Z" fill="black"/>
<path d="M1274.9 468.405C1274.9 444.427 1265.61 432.438 1246.41 432.438C1234.64 432.438 1225.35 438.08 1221.01 444.427C1217.3 449.363 1216.06 452.89 1216.06 465.584V519.181C1216.06 544.569 1216.68 548.095 1227.82 549.505L1234.02 550.916C1235.88 552.326 1235.88 558.673 1233.4 559.379C1224.11 558.673 1215.44 557.968 1204.29 557.968C1193.14 557.968 1185.09 558.673 1176.42 559.379C1174.56 557.968 1173.32 552.326 1175.8 550.916L1181.37 549.505C1192.52 547.39 1193.14 544.569 1193.14 519.181V468.405C1193.14 445.132 1183.85 432.438 1164.65 432.438C1152.26 432.438 1143.59 438.785 1138.63 445.132C1135.54 449.364 1134.3 453.595 1134.3 464.878V519.181C1134.3 544.569 1134.92 547.39 1146.07 549.505L1151.64 550.916C1153.5 552.326 1152.88 558.673 1151.02 559.379C1142.97 558.673 1133.68 557.968 1123.15 557.968C1112 557.968 1102.71 558.673 1093.42 559.379C1091.56 557.968 1090.94 552.326 1092.8 550.916L1100.23 549.505C1111.38 547.39 1112 544.569 1112 519.181V457.826C1112 444.427 1112 442.311 1103.95 435.964L1101.47 433.849C1100.23 432.438 1100.23 428.912 1101.47 427.502C1108.28 424.681 1126.25 415.513 1132.44 410.576C1133.68 410.576 1134.92 411.281 1135.54 412.692C1134.92 420.449 1134.92 426.091 1134.92 428.912C1134.92 431.028 1136.16 432.438 1138.01 432.438C1149.78 423.27 1164.03 414.808 1178.89 414.808C1194.38 414.808 1203.05 421.155 1211.72 435.259C1214.2 435.964 1216.68 434.554 1219.15 432.438C1231.54 422.565 1246.41 414.808 1261.27 414.808C1286.05 414.808 1297.82 433.849 1297.82 458.531V519.181C1297.82 544.569 1298.43 548.095 1309.58 549.505L1317.02 550.916C1318.87 552.326 1318.87 558.673 1316.4 559.379C1306.49 558.673 1297.2 557.968 1286.67 557.968C1275.52 557.968 1267.47 558.673 1258.79 559.379C1256.94 557.968 1256.32 552.326 1258.17 550.916L1263.75 549.505C1274.9 547.39 1275.52 544.569 1275.52 519.181V468.405H1274.9Z" fill="black"/>
<path d="M1376.48 506.484C1376.48 530.462 1381.43 546.682 1404.97 546.682C1413.02 546.682 1422.93 542.45 1429.74 536.103C1433.46 531.872 1435.94 526.936 1435.94 515.652V457.824C1435.94 435.256 1434.08 434.551 1424.79 430.32L1421.07 428.204C1419.21 426.794 1419.21 421.857 1421.69 420.447C1434.08 420.447 1450.8 417.626 1457.61 414.1C1459.47 414.805 1460.09 414.805 1460.09 416.215C1459.47 422.562 1458.85 433.846 1458.85 446.54V505.779C1458.85 533.283 1460.09 543.861 1468.14 543.861C1471.86 543.861 1475.58 543.156 1479.91 541.745C1481.77 543.861 1482.39 550.208 1479.91 551.618C1468.14 554.439 1450.18 557.965 1439.65 564.312C1437.79 564.312 1436.56 563.607 1435.94 562.197V548.092C1435.94 544.566 1434.7 543.156 1433.46 543.156C1424.17 549.503 1409.3 561.492 1390.72 561.492C1363.47 561.492 1353.56 545.977 1353.56 517.768V459.234C1353.56 437.372 1353.56 433.846 1344.27 429.615L1340.55 427.499C1338.69 425.383 1339.31 421.152 1341.17 419.742C1355.42 419.742 1367.19 416.215 1374 413.395C1375.86 414.1 1377.1 414.1 1377.1 415.51C1376.48 421.152 1376.48 428.909 1376.48 445.835V506.484Z" fill="black"/>
<path d="M1518.93 457.826C1518.93 444.427 1518.93 442.311 1510.88 435.964L1508.4 433.849C1507.16 432.438 1507.16 428.912 1509.02 427.502C1515.84 424.681 1533.8 415.513 1539.99 410.576C1541.23 410.576 1542.47 411.281 1543.71 412.692C1543.09 420.449 1543.09 426.091 1543.09 428.912C1543.09 431.028 1544.33 432.438 1546.19 432.438C1559.19 423.27 1573.44 414.808 1589.54 414.808C1614.94 414.808 1625.47 434.554 1625.47 458.531V519.181C1625.47 544.569 1626.09 548.095 1637.24 549.505L1644.05 550.916C1645.91 552.326 1645.29 558.673 1643.43 559.379C1634.14 558.673 1625.47 557.968 1614.32 557.968C1603.17 557.968 1593.88 558.673 1585.83 559.379C1583.97 557.968 1582.73 552.326 1585.21 550.916L1590.78 549.505C1601.93 547.39 1602.55 544.569 1602.55 519.181V466.994C1602.55 447.248 1594.5 432.438 1573.44 432.438C1561.67 432.438 1551.76 438.08 1547.42 444.427C1543.71 450.069 1543.09 455.005 1543.09 465.584V519.181C1543.09 544.569 1543.71 547.39 1554.86 549.505L1560.43 550.916C1562.29 552.326 1562.29 558.673 1559.81 559.379C1551.76 558.673 1542.47 557.968 1531.94 557.968C1520.79 557.968 1511.5 558.673 1502.83 559.379C1500.97 557.968 1500.35 552.326 1502.21 550.916L1508.4 549.505C1519.55 547.39 1520.17 544.569 1520.17 519.181V457.826H1518.93Z" fill="black"/>
<path d="M439.514 -8.32812V289.982C439.514 289.982 437.656 355.568 433.94 376.019C415.978 473.34 350.323 545.978 263.61 564.314C249.983 567.135 236.357 568.545 223.35 568.545C182.471 567.84 150.882 555.146 123.01 538.221C103.809 526.937 64.7881 487.444 62.3106 483.213C61.6912 482.508 55.4974 473.34 53.6392 470.519C38.7741 447.952 24.5283 417.627 18.9538 386.597C16.4763 374.609 7.18557 325.243 7.80496 283.635C8.42434 280.109 7.80496 -8.32812 7.80496 -8.32812H439.514Z" fill="#0063BE"/>
<path d="M12.7598 -2.68555C12.7598 60.7846 12.7598 274.467 12.7598 274.467H433.939V-2.68555H12.7598Z" fill="#F4AA00"/>
<path d="M210.962 392.943C208.485 401.406 209.723 413.395 208.485 424.678C207.246 442.309 206.626 460.645 206.007 478.275C206.007 478.275 206.626 480.391 206.626 481.096C206.626 489.559 206.007 501.548 202.291 506.484C199.194 510.01 194.239 510.01 189.903 509.305C173.18 505.779 136.017 482.507 131.681 465.581C130.442 459.234 133.539 453.593 134.778 450.066C122.39 446.54 108.145 441.604 92.6602 441.604C94.5183 460.645 98.2346 474.044 104.428 487.443C108.145 485.328 113.1 483.917 118.055 486.738C122.39 488.854 124.868 493.085 128.584 496.611C134.778 502.253 140.972 508.6 147.785 513.537C163.889 525.525 183.09 533.988 202.91 542.451C206.626 543.861 221.492 553.734 223.35 553.734C225.208 553.734 237.596 545.977 240.692 544.566C260.513 536.104 281.572 526.936 297.676 514.242C308.205 505.779 316.876 492.38 328.025 485.328C332.98 481.801 339.794 488.854 342.89 486.033C347.846 481.096 352.181 452.887 352.181 440.899C345.368 442.309 338.555 442.309 332.361 443.719C326.167 445.835 319.973 449.361 313.16 451.477C313.78 457.119 316.257 466.287 313.16 471.928C306.966 482.507 261.751 517.768 246.886 509.305C245.028 507.895 241.931 503.663 241.312 500.842C239.454 491.675 240.692 480.391 240.692 471.928C240.073 445.835 240.073 419.742 236.976 394.354C227.685 392.943 220.253 392.943 210.962 392.943Z" fill="#F4AA00"/>
<path d="M159.555 366.852C157.077 367.557 153.361 368.262 150.264 368.967C150.264 373.199 149.645 378.135 149.645 383.072C152.741 384.482 158.316 386.598 162.652 385.893C167.607 385.187 165.129 371.083 165.129 366.852C162.652 366.852 160.793 366.852 159.555 366.852Z" fill="#F4AA00"/>
<path d="M183.09 365.441C183.09 365.441 183.709 380.251 183.09 385.893L183.709 386.598C187.426 388.009 243.789 388.009 264.229 385.893C264.848 382.367 264.848 378.841 264.229 376.02V365.441H183.09Z" fill="#F4AA00"/>
<path d="M285.907 366.146C281.571 366.851 284.048 381.661 284.048 385.187C287.145 385.187 289.004 385.187 291.481 384.482C302.011 382.366 298.914 378.84 298.914 367.556C295.197 367.556 289.623 365.441 285.907 366.146Z" fill="#F4AA00"/>
<path d="M170.084 357.686C169.464 364.738 169.464 373.906 170.084 379.547V384.484C168.845 393.652 170.084 395.062 178.136 392.947C178.136 386.6 178.136 380.253 178.136 374.611C178.136 368.264 178.136 364.738 177.516 357.686C175.039 357.686 172.561 357.686 170.084 357.686Z" fill="#F4AA00"/>
<path d="M269.804 357.686C269.184 364.738 268.565 371.79 269.184 379.547C269.184 383.779 268.565 387.305 269.804 391.536C270.423 395.062 276.617 395.062 278.475 392.947L277.856 390.126C277.856 390.126 277.856 387.305 277.856 385.895C278.475 385.895 277.856 361.212 277.236 357.686C275.378 357.686 272.281 357.686 269.804 357.686Z" fill="#F4AA00"/>
<path d="M220.254 312.548C218.396 313.254 214.68 316.075 214.06 318.19C212.821 322.422 214.06 326.653 213.441 330.179C212.821 338.642 211.583 349.925 212.202 359.798C219.635 359.798 227.067 359.798 233.88 359.798C234.5 354.157 233.88 322.422 231.403 317.485C230.783 313.254 225.209 311.138 220.254 312.548Z" fill="#F4AA00"/>
<path d="M219.635 287.161C208.486 288.572 199.814 299.15 197.337 309.728C194.859 320.307 197.956 330.885 202.911 337.232C204.15 338.643 205.389 340.053 206.628 341.463L207.866 340.758C207.866 337.232 209.105 334.411 208.486 330.885C207.866 326.654 203.531 323.128 203.531 317.486C203.531 313.96 204.769 309.728 206.008 307.613C212.202 292.098 234.5 291.393 241.932 306.202C246.268 313.96 244.41 323.833 240.694 330.885C239.455 333.706 238.216 344.99 242.552 341.463C261.133 323.833 246.887 283.635 219.635 287.161Z" fill="#F4AA00"/>
<path d="M310.684 113.674C309.445 113.674 308.826 113.674 307.587 113.674C306.968 113.674 305.729 115.79 305.109 115.79C305.109 115.79 303.251 115.79 304.49 115.085C308.206 112.969 313.161 103.801 310.064 98.1592C309.445 96.7487 308.826 95.3383 306.348 95.3383L305.729 96.0435C305.109 96.7487 304.49 96.0435 303.251 96.7487C303.251 96.7487 303.251 98.1592 302.632 98.1592C301.393 99.5696 299.535 100.275 298.916 101.685C300.774 98.1592 304.49 88.2861 302.012 82.6443L300.154 80.5286C293.96 77.0025 289.625 90.4017 288.386 94.6331C287.767 96.0435 289.005 89.6965 289.005 88.9913C289.625 85.4652 289.625 81.939 289.005 79.8234C288.386 78.4129 289.005 78.4129 288.386 77.0025C287.767 75.592 282.812 74.8868 280.953 76.2973C280.334 77.0025 279.715 80.5286 279.095 81.939C277.857 85.4652 274.76 92.5174 271.663 94.6331C271.043 95.3383 271.663 93.2226 271.663 93.2226C272.282 91.8122 273.521 91.107 274.14 90.4017C275.379 86.8756 275.998 78.4129 272.282 77.7077C270.424 77.0025 269.805 78.4129 269.185 78.4129C262.991 80.5286 263.611 86.1704 259.894 90.4017L259.275 91.8122C258.036 92.5174 256.798 91.8122 255.559 92.5174C255.559 91.8122 254.32 91.1069 254.939 89.6965L255.559 88.9913C256.178 86.8756 258.656 81.2338 256.798 78.4129C256.798 77.7077 255.559 77.7077 254.939 77.7077C253.701 78.4129 252.462 79.8234 251.223 80.5286C249.984 81.2338 249.365 80.5286 248.746 81.2338L248.126 82.6443C247.507 83.3495 246.887 82.6443 246.268 83.3495C245.029 84.7599 243.791 86.8756 242.552 87.5808C241.313 88.2861 241.313 87.5808 240.074 88.2861C238.835 88.2861 237.597 90.4017 236.977 90.4017C235.739 91.107 235.119 90.4017 233.88 91.107C232.022 91.8122 229.545 93.2226 227.687 93.9278C220.254 96.0435 211.583 96.7487 201.673 96.0435C199.195 96.0435 196.098 96.0435 194.859 96.0435C193.001 95.3383 189.904 93.9278 188.046 93.2226C186.188 92.5174 184.949 93.2226 183.091 92.5174C179.375 91.107 174.42 86.8756 171.942 84.0547C171.323 83.3495 171.323 81.939 170.703 81.2338C170.084 79.8234 168.226 79.1182 167.607 77.7077C166.987 77.0025 167.607 76.2973 166.987 75.592C165.748 74.1816 164.51 72.7711 163.271 71.3607C162.032 69.245 160.793 65.7189 159.555 63.6032L158.316 62.898C157.077 62.1928 157.077 60.0771 155.838 59.3719H155.219C153.98 58.6667 152.741 55.8458 151.503 55.1406C148.406 52.3197 144.689 49.4988 142.212 45.9727C141.592 45.2674 141.592 44.5622 141.592 43.1518C140.354 41.0361 137.876 38.9204 136.637 37.51C135.399 36.0995 136.018 34.6891 134.779 33.2786C132.302 28.3421 127.966 21.9951 123.011 19.8794C121.153 19.1742 119.914 19.1742 117.437 19.1742C115.578 19.1742 113.72 17.7637 111.243 18.4689C110.004 18.4689 105.049 22.7003 105.049 24.1107C103.191 29.0473 106.907 33.2786 100.713 33.9839C96.3776 34.6891 92.6613 32.5734 90.1838 31.163C90.1838 33.9839 90.1838 36.0995 88.945 37.51C87.0869 40.3309 82.7512 40.3309 80.2737 42.4465C79.6543 43.1518 79.6543 45.2674 79.6543 45.2674L80.2737 45.9727C82.7512 45.9727 83.99 45.9727 85.8481 46.6779C85.8481 47.3831 85.8481 47.3831 85.8481 48.0883C85.8481 48.7936 80.2737 53.0249 79.6543 54.4353C80.2737 55.1406 80.8931 55.1406 81.5124 55.1406C83.99 56.551 87.0869 57.2562 90.1838 57.9615C88.3256 60.7823 86.4675 62.898 83.99 65.7189C83.99 66.4241 84.6093 68.5398 84.6093 68.5398C90.8032 68.5398 99.4745 68.5398 101.952 72.7711C102.571 74.1816 103.81 79.8234 104.43 81.939C106.907 89.6965 106.907 96.0435 108.146 104.506L108.765 105.917C108.765 107.327 108.765 108.032 108.765 109.443C108.765 110.148 110.004 113.674 110.623 114.379C111.243 118.611 111.862 121.432 113.101 126.368C114.34 130.599 116.817 136.241 118.056 139.767C118.675 141.883 118.675 143.293 119.295 145.409C119.914 146.114 121.153 148.23 121.772 148.935C121.772 149.64 121.772 149.64 121.772 150.346C122.392 151.051 123.63 151.756 124.25 153.167C124.25 153.872 124.25 154.577 124.869 155.282C124.869 155.988 126.108 155.988 126.108 155.988C127.347 158.103 128.585 160.924 129.824 163.04C131.063 164.45 132.302 165.155 133.541 166.566C136.637 170.797 139.734 175.029 143.451 178.555C145.928 180.67 148.406 182.081 151.503 183.491C152.122 184.196 153.361 185.607 153.98 186.312C163.89 192.659 174.42 198.301 186.188 201.827C186.188 202.532 186.188 203.237 186.188 204.648L185.569 205.353C183.091 209.584 180.614 211.7 177.517 215.226C176.897 215.932 175.659 218.047 175.659 218.047C175.039 218.752 174.42 218.047 173.8 218.752C173.8 218.752 173.8 220.163 173.8 220.868C175.039 221.573 176.278 221.573 177.517 222.279C177.517 222.984 177.517 223.689 176.897 224.394C175.658 225.805 174.42 227.92 173.181 229.331L173.8 231.446C170.703 234.973 163.89 242.025 158.316 239.909L157.077 238.499C154.6 237.088 149.025 234.973 145.309 235.678C142.831 236.383 142.212 239.204 144.07 238.499V239.204C140.973 239.909 133.541 240.614 132.302 242.025C132.302 242.025 132.302 243.435 131.682 243.435C129.824 244.846 126.727 244.14 126.108 246.256C125.489 247.667 124.869 254.014 125.489 254.719C126.108 255.424 126.727 254.719 127.347 255.424C129.205 254.014 131.063 252.603 132.302 250.487C132.921 249.782 132.921 249.077 132.921 247.667C136.637 249.077 139.115 248.372 143.451 246.961L144.689 246.256C145.928 246.256 145.309 246.961 146.548 246.961C144.689 247.667 141.592 249.782 140.973 251.193C140.973 251.193 140.973 253.308 140.354 253.308C137.876 254.719 135.399 252.603 133.541 254.014V254.719L132.921 255.424C132.921 258.95 133.541 261.066 133.541 263.181C134.16 263.181 135.399 263.181 136.018 263.181C137.876 261.066 139.115 259.655 140.973 257.54C142.831 258.245 144.07 258.95 146.548 258.95C149.025 258.95 151.503 256.129 153.361 255.424C157.696 252.603 165.129 250.487 172.562 251.898C174.42 251.898 178.755 254.719 180.614 255.424L181.852 256.834C183.091 256.834 183.71 256.834 184.949 256.834C184.33 260.361 182.472 268.118 187.427 266.002C189.285 265.297 189.904 261.771 190.524 258.95C190.524 258.95 191.762 256.129 190.524 256.129C189.904 253.308 189.904 251.193 191.143 248.372C188.666 245.551 187.427 245.551 182.472 244.846C175.039 244.14 176.897 243.435 179.994 239.909C184.949 234.973 189.285 230.036 194.24 225.099C196.098 226.51 197.337 227.215 199.195 227.92C199.814 224.394 201.673 219.458 204.15 218.047C204.769 218.047 204.769 218.047 205.389 218.047C206.628 219.458 207.247 220.163 207.866 220.868C210.344 216.637 212.821 213.111 215.299 209.584C216.538 207.469 216.538 206.058 218.396 205.353C218.396 205.353 218.396 205.353 218.396 204.648C220.254 203.943 222.112 205.353 223.97 205.353C226.448 205.353 234.5 204.648 237.597 204.648C236.977 215.226 232.022 220.868 227.067 227.215V228.626C229.545 227.92 231.403 227.92 234.5 227.215C233.261 232.152 232.022 239.909 228.306 242.025C222.732 245.551 217.776 239.204 213.441 238.499C212.202 238.499 207.866 239.204 207.247 239.204C206.628 239.204 206.628 240.614 206.628 240.614C206.628 240.614 206.628 243.435 207.247 242.73C207.247 242.73 208.486 243.435 209.105 243.435C210.344 243.435 212.821 242.025 214.06 242.73C214.68 242.73 214.68 244.14 214.68 244.14C210.344 244.846 199.195 242.73 196.717 244.846C196.098 245.551 196.717 247.667 196.098 247.667C195.479 248.372 194.24 247.667 193.621 248.372C191.762 249.782 191.762 254.014 191.143 256.834C193.621 258.95 191.143 257.54 194.859 258.95C196.098 256.834 197.337 255.424 197.956 252.603C199.195 252.603 198.576 253.308 199.814 253.308C202.911 253.308 206.628 249.077 211.583 250.487L212.202 251.193C209.725 251.898 207.247 251.193 204.769 251.898C201.673 253.308 202.292 255.424 201.053 256.129C200.434 256.129 199.814 256.129 199.195 256.129C196.717 256.834 196.098 261.066 197.956 263.887C199.814 266.708 201.053 264.592 202.292 263.181C202.911 262.476 202.292 262.476 202.911 261.066C206.628 261.066 209.725 261.066 212.202 260.361C216.538 258.95 219.015 255.424 223.97 254.014C229.545 252.603 236.358 254.014 242.552 256.129C243.791 256.129 245.029 258.245 246.268 258.245C246.887 258.245 247.507 258.245 247.507 258.245C248.746 258.95 249.365 261.066 250.604 261.066C251.842 261.771 252.462 259.655 254.32 260.361V262.476C255.559 263.181 257.417 263.181 258.036 263.887L258.656 264.592C259.275 264.592 259.894 264.592 260.514 264.592C261.133 262.476 262.991 258.245 261.753 254.719C261.753 254.014 260.514 253.308 260.514 252.603C259.894 252.603 258.656 252.603 258.036 252.603C258.036 251.193 258.036 249.782 258.036 249.077C256.798 248.372 254.32 246.961 252.462 246.961C249.365 246.256 246.268 247.667 245.029 247.667C241.932 247.667 236.977 246.256 237.597 241.32C237.597 240.614 238.835 239.204 239.455 238.499C240.694 236.383 241.932 233.562 243.171 231.446C243.791 230.741 243.791 229.331 244.41 228.626C244.41 228.626 245.649 228.626 245.649 227.92L246.268 229.331C246.887 229.331 246.887 229.331 247.507 229.331C248.746 226.51 249.984 225.099 251.223 222.984C251.842 221.573 251.842 220.163 253.081 218.752C253.081 218.752 254.32 218.752 254.32 218.047C254.939 219.458 255.559 221.573 256.178 222.279C256.798 222.984 257.417 222.984 258.036 222.984C258.036 222.278 259.275 221.573 259.275 221.573C259.894 220.163 259.275 216.637 259.275 216.637C260.514 211.7 262.372 209.584 265.469 206.764C271.663 213.111 277.857 219.458 284.05 226.51C284.67 227.215 284.67 228.626 285.289 229.331H285.909C285.909 229.331 293.341 237.793 293.341 238.499C295.199 240.614 295.819 242.73 297.057 244.846C297.057 245.551 298.296 245.551 298.296 245.551C298.916 246.961 299.535 249.782 300.774 251.193C301.393 251.898 304.49 252.603 306.348 251.898C307.587 251.898 307.587 250.487 308.206 249.077C311.923 240.614 301.393 225.099 297.677 220.868L297.057 220.163C296.438 219.458 296.438 219.458 296.438 218.752C295.819 218.752 295.819 218.047 295.819 218.047L295.199 217.342L294.58 216.637C294.58 215.931 293.96 215.931 293.96 215.931C293.96 215.931 293.96 215.226 293.341 215.226C292.722 214.521 292.722 214.521 292.102 213.111L291.483 212.405C290.864 211.7 290.244 211.7 289.625 210.995C289.005 210.29 289.005 208.879 288.386 208.174C287.767 208.174 287.767 207.469 287.767 207.469C287.147 206.764 287.147 206.058 286.528 205.353C285.909 204.648 285.289 203.943 284.67 203.237C284.05 202.532 283.431 201.827 282.812 201.122C282.192 200.417 280.953 199.711 280.334 198.301C279.715 197.596 279.715 196.89 279.715 196.89C279.095 196.185 279.095 196.185 279.095 196.185C275.379 192.659 271.663 189.838 267.327 187.017C266.708 186.312 265.469 184.902 264.85 184.196C264.23 184.196 263.611 184.196 262.991 184.196C262.991 186.312 262.991 188.428 262.372 190.543C261.133 194.775 254.939 195.48 250.604 194.775C246.268 194.07 243.171 191.249 238.835 189.838L238.216 189.133C237.597 188.428 236.977 189.133 235.739 188.428C235.119 187.723 234.5 186.312 233.261 185.607C232.022 184.902 231.403 185.607 230.164 184.902C229.545 184.902 229.545 183.491 229.545 183.491C227.687 182.081 225.209 180.67 223.351 179.26C217.157 176.439 210.963 175.734 204.15 172.913C203.531 172.913 201.673 171.502 201.053 170.797C199.814 170.092 198.576 170.797 197.337 170.092C196.717 170.092 195.479 167.976 194.859 167.976C194.24 167.976 193.621 167.976 193.621 167.976C193.001 167.976 192.382 166.566 191.762 165.861C187.427 167.976 186.188 167.976 184.949 167.271C182.472 165.861 180.614 163.04 178.136 160.924C177.517 160.924 176.897 160.924 176.278 160.219C175.659 160.219 175.659 158.808 175.659 158.808C174.42 157.398 172.562 157.398 171.942 155.988C164.51 148.935 158.935 139.062 158.935 123.547L160.174 122.842C160.793 125.663 161.413 129.189 162.032 132.715C163.271 138.357 165.129 143.999 167.607 148.23C168.226 148.935 168.845 148.935 169.465 149.64C170.084 150.346 170.084 150.346 170.703 151.051C171.323 151.756 171.942 152.461 173.181 153.167C173.8 153.872 174.42 155.282 175.659 155.988C177.517 157.398 178.755 158.103 180.614 158.808C181.852 159.514 183.71 161.629 184.949 163.04C185.569 163.745 186.807 163.04 187.427 163.745C188.046 164.45 188.046 165.155 188.666 165.861C189.285 165.861 189.904 165.861 190.524 165.861C191.143 165.861 192.382 167.271 193.001 167.976C194.24 168.682 194.859 167.976 195.479 168.682C199.814 170.797 217.157 179.965 219.635 169.387C220.254 167.271 220.254 165.155 219.635 163.04H218.396C218.396 162.335 218.396 161.629 218.396 160.924C217.157 158.103 214.06 155.988 212.821 153.167C212.202 152.461 213.441 152.461 213.441 152.461C214.06 153.167 214.06 153.872 214.68 154.577C215.299 154.577 215.918 154.577 216.538 155.282C216.538 155.282 216.538 156.693 217.157 156.693C217.776 157.398 218.396 157.398 219.635 157.398C220.873 158.808 222.112 160.924 223.351 161.629C225.209 163.04 227.067 163.745 228.925 164.45L230.164 165.861C230.784 165.861 231.403 165.861 232.022 165.861V166.566C233.88 167.271 237.597 165.155 239.455 164.45C240.074 163.745 241.313 163.745 241.932 163.745C242.552 163.04 242.552 161.629 242.552 160.924C245.029 151.756 239.455 143.999 235.119 139.767C239.455 141.883 249.984 153.167 256.798 151.051C261.133 149.641 258.656 139.767 257.417 136.946C256.178 134.831 254.32 133.42 253.081 132.01C252.462 131.305 253.701 131.305 253.701 131.305L254.32 132.01C256.178 133.42 259.275 136.241 261.753 136.241C272.282 138.357 266.088 127.073 264.23 123.547C270.424 128.484 284.67 145.409 297.677 139.767L298.296 139.062C299.535 138.357 299.535 139.062 300.774 138.357C304.49 135.536 302.632 132.01 300.774 128.484C304.49 127.779 306.967 126.368 309.445 124.252C310.064 123.547 310.064 122.137 310.684 122.137H311.303C312.542 120.021 312.542 117.905 312.542 115.085C311.303 115.79 311.303 114.379 310.684 113.674ZM113.101 32.5734L111.862 31.8682L111.243 31.163C111.243 27.6369 111.243 27.6369 111.862 25.5212L113.101 24.816C113.72 25.5212 114.34 25.5212 115.578 26.9316V28.3421C115.578 28.3421 114.34 31.8682 114.34 32.5734H113.101ZM122.392 36.8048C119.914 36.8048 118.056 36.8048 116.817 36.0995C114.959 34.6891 116.198 32.5734 116.817 30.4577H118.056C118.056 30.4577 120.534 31.8682 121.153 32.5734C121.772 33.2786 122.392 34.6891 122.392 35.3943V36.8048Z" fill="#E63312"/>
<path d="M276.617 179.26C279.094 181.375 281.572 182.081 284.049 184.196C288.385 187.722 292.101 193.364 295.198 197.596C295.818 199.006 297.676 199.711 298.295 200.417C300.773 203.943 302.012 207.469 303.87 210.995C303.87 211.7 305.108 211.7 305.108 211.7C305.728 213.111 305.728 213.816 306.347 215.226C306.967 216.637 308.825 218.752 309.444 220.163C311.922 226.51 314.399 232.857 313.16 241.32C312.541 241.32 311.302 242.025 310.683 242.025C308.205 239.909 308.205 237.793 306.967 234.267C305.728 231.446 303.25 229.331 302.012 227.215C300.773 225.099 300.773 223.689 299.534 221.573C298.915 220.163 297.056 219.458 296.437 218.047C295.818 217.342 296.437 216.637 295.818 215.931C295.198 215.226 293.34 214.521 293.34 213.111V212.405C292.721 211.7 290.863 210.995 290.863 209.584V210.29C290.243 209.584 288.385 208.879 288.385 207.469V206.764C287.766 205.353 281.572 200.416 280.953 199.711V199.006C279.714 197.596 278.475 197.596 277.236 196.185C274.139 193.364 271.042 190.543 267.326 187.722L267.946 187.017C268.565 186.312 269.804 187.017 270.423 187.017C272.901 185.607 275.378 181.375 276.617 179.26Z" fill="#E63312"/>
<path d="M289.624 167.975C299.535 175.027 308.206 190.542 313.161 202.531C313.78 203.236 313.78 203.236 313.78 203.941C313.78 204.646 313.78 205.351 314.4 206.057C314.4 206.057 314.4 206.057 315.019 206.057L315.639 206.762V207.467L316.258 208.172V209.583C316.258 210.288 317.497 210.993 317.497 211.699C318.116 213.814 323.071 234.266 315.019 228.624C313.78 227.919 313.161 222.982 312.542 221.572L311.922 220.866C310.064 215.225 308.206 210.993 305.109 206.057C303.87 204.646 302.632 203.236 301.393 201.825C300.154 199.71 299.535 197.594 297.676 195.478C296.438 194.068 294.58 193.363 293.96 191.952V191.247C293.96 190.542 291.483 188.426 291.483 188.426C287.766 184.9 284.669 181.374 280.953 178.553C280.953 178.553 280.953 177.143 281.573 177.143C282.811 176.437 283.431 177.143 285.289 176.437L285.908 175.732C287.766 174.322 289.624 174.322 289.624 171.501C289.624 170.796 289.624 170.09 289.624 169.385V167.975Z" fill="#E63312"/>
<path d="M298.296 153.871C299.535 153.871 303.251 158.102 303.871 158.808C315.639 170.091 329.885 189.132 323.691 213.815C321.833 213.11 320.594 213.815 319.974 213.11C319.355 212.405 319.355 210.289 319.355 208.879C318.736 206.763 316.878 204.647 316.258 202.532C315.639 201.121 315.639 199.711 315.019 198.3L314.4 197.595C313.781 196.185 313.781 194.774 313.161 193.364L311.923 192.658C311.303 191.248 311.303 189.838 310.684 188.427C310.684 187.722 309.445 187.722 309.445 187.722C308.206 186.311 308.206 184.196 306.967 182.785H305.109V182.08C305.109 181.375 303.251 179.964 302.632 179.259C298.915 173.617 295.199 168.681 290.244 165.155L290.864 164.449C293.341 163.744 293.96 163.744 295.819 162.334C298.296 160.218 297.057 158.808 297.677 155.282C297.677 153.871 297.677 153.871 298.296 153.871Z" fill="#E63312"/>
<path d="M269.805 133.422C272.283 135.538 274.141 138.358 277.238 139.769C279.096 141.179 280.335 140.474 282.812 141.885C283.432 141.885 284.051 143.295 284.051 143.295C284.67 143.295 284.67 143.295 285.29 143.295L285.909 144C286.529 144 287.148 144 287.767 144.705C290.245 146.116 292.722 149.642 294.58 152.463C295.2 153.168 296.439 154.579 296.439 155.284C297.058 160.926 292.103 161.631 287.767 161.631C289.006 173.62 285.29 174.325 274.141 172.914C274.76 185.608 267.947 183.493 259.276 182.082C259.276 186.314 259.276 189.84 257.418 192.661C256.798 193.366 255.559 194.776 254.94 194.776C253.701 194.776 251.843 194.776 250.604 194.776C245.03 194.071 241.314 191.25 236.978 188.429C235.739 187.724 234.5 187.724 233.262 187.019C232.642 186.314 231.404 184.903 230.784 184.198C226.448 181.377 222.113 179.261 218.396 176.441C222.113 173.62 224.59 170.799 223.971 163.747C224.59 163.747 224.59 163.747 225.21 163.747C225.829 163.747 225.829 165.157 226.448 165.862C227.687 166.567 229.545 167.978 230.165 168.683C235.739 170.799 242.552 169.388 245.03 164.452C245.649 163.041 245.03 163.041 245.649 161.631L246.269 160.926C246.888 157.4 246.269 153.873 245.649 151.052C248.127 152.463 254.94 155.989 259.276 153.873C259.895 153.873 259.895 152.463 259.895 152.463C260.514 152.463 261.134 152.463 261.134 151.758C261.134 151.052 261.134 150.347 261.134 149.642C261.134 148.232 262.373 146.821 261.753 144L261.134 141.885C261.134 140.474 261.753 139.769 261.753 139.064C266.089 140.474 268.566 139.064 269.805 133.422Z" fill="#E63312"/>
<path d="M92.6604 10.7122C96.3766 10.007 101.332 10.7122 104.429 12.1227C105.048 12.1227 106.287 13.5331 106.906 14.2383C107.526 14.9436 108.145 14.9436 109.384 14.9436C108.764 15.6488 103.19 20.5853 103.19 20.5853C103.19 21.2906 103.19 21.2906 103.19 21.9958L102.57 22.701C101.951 24.8167 103.19 28.3428 102.57 30.4585C102.57 31.1637 101.332 31.1637 100.712 31.8689C98.2348 31.8689 96.996 31.8689 95.1379 31.1637C93.8991 31.1637 82.1309 23.4062 82.1309 22.701C82.1309 21.9958 82.1309 21.2906 82.1309 20.5853C85.8472 21.2906 87.7053 21.2906 92.041 21.2906C91.4216 21.2906 93.8991 21.9958 94.5185 21.9958V21.2906C93.8991 20.5853 93.2797 20.5853 92.041 20.5853C91.4216 19.8801 90.8022 18.4697 90.1828 17.7644C88.9441 17.0592 87.7053 17.0592 86.4665 15.6488C85.8472 14.9436 85.8472 14.2383 85.8472 13.5331C87.0859 12.1227 89.5634 10.7122 92.6604 10.7122Z" fill="#E63312"/>
<path d="M308.207 10.006C319.975 8.59557 310.685 21.9948 308.826 24.8157C307.588 27.6366 306.349 31.1627 305.11 34.6889C308.826 31.868 309.446 28.3419 311.923 24.8157C312.543 23.4053 313.781 22.7001 314.401 21.2896C315.64 18.4687 317.498 13.5321 319.975 12.1217C323.692 10.7112 328.027 11.4165 331.124 12.8269C339.796 16.353 331.124 25.521 328.647 29.0471C326.169 31.868 324.93 34.6889 323.072 38.215C322.453 38.9202 321.214 38.9202 321.214 39.6254C320.595 41.0359 321.214 41.7411 321.214 42.4463C323.692 40.3307 324.311 38.9202 326.169 36.0993H326.788V34.6889C327.408 33.2784 329.885 31.868 330.505 31.1627C331.124 30.4575 331.124 29.0471 331.744 28.3419C332.363 27.6366 333.602 26.9314 334.221 26.2262V24.8157H334.84C335.46 23.4053 337.937 19.1739 339.176 18.4687C341.034 17.7635 344.751 19.1739 345.989 19.1739L346.609 19.8792C348.467 21.2896 350.944 21.9948 352.183 24.1105C355.899 31.1627 348.467 38.215 345.37 41.0359C341.654 44.562 338.557 49.4986 334.221 53.0247C334.84 53.7299 332.982 55.1404 335.46 55.1404C336.699 55.1404 337.937 52.3195 339.176 50.909C342.273 47.3829 345.37 44.562 348.467 41.7411C349.706 40.3307 350.944 38.215 352.183 37.5098C353.422 36.8045 355.899 36.0993 357.758 36.8045C358.377 36.8045 358.996 38.9202 359.616 39.6254C362.093 43.1516 363.951 49.4986 364.571 55.8456C364.571 57.9613 364.571 60.0769 363.951 61.4874C363.951 61.4874 363.951 61.4874 363.332 61.4874C362.713 61.4874 362.093 62.8978 361.474 63.6031C360.235 64.3083 358.996 64.3083 357.758 64.3083C353.422 65.7187 347.228 67.8344 343.512 70.6553C342.892 70.6553 342.892 72.0658 342.273 72.771C342.892 72.771 344.131 72.771 344.751 72.771L345.37 72.0658C349.086 70.6553 364.571 63.6031 367.048 67.8344C368.287 70.6553 368.287 78.4128 368.287 81.2337C368.287 84.0546 369.526 86.8755 367.668 89.6964C365.81 93.2225 359.616 91.1068 355.899 92.5173L355.28 93.2225C352.803 93.9277 350.325 91.8121 347.228 93.2225C347.228 93.2225 346.609 93.2225 346.609 93.9277V95.3382C351.564 95.3382 364.571 92.5173 366.429 97.4538C367.048 98.8643 366.429 100.275 367.048 101.685C367.048 101.685 368.287 108.737 367.048 107.327C367.048 110.853 366.429 115.79 363.951 116.495C360.235 117.905 355.899 113.674 352.183 113.674C350.944 113.674 348.467 114.379 346.609 114.379V115.79C349.706 115.79 362.713 118.611 363.951 122.137C365.19 125.663 363.332 135.536 362.093 138.357C361.474 140.473 360.235 143.293 358.996 144.704C357.758 143.999 357.138 144.704 356.519 143.999C355.899 143.999 355.899 142.588 355.28 141.883C354.661 141.883 354.041 141.883 353.422 141.178C352.803 141.178 352.803 139.767 352.803 139.062C350.325 136.946 346.609 136.241 343.512 134.831C342.273 134.126 341.034 132.715 340.415 132.715C339.796 132.715 338.557 132.715 337.937 132.715C336.079 133.42 344.751 137.652 345.37 138.357C348.467 139.767 350.325 141.178 352.803 142.588C354.041 143.293 356.519 144.704 356.519 146.114C357.758 151.051 352.183 160.219 350.325 162.334C349.086 161.629 348.467 162.334 347.847 161.629C345.989 160.924 344.751 155.987 342.892 154.577C339.795 151.756 334.221 147.525 329.885 146.114C329.885 146.82 329.266 146.82 329.885 148.23C330.505 148.935 333.602 150.346 334.84 151.051C339.176 153.872 342.273 157.398 345.37 160.924C345.989 161.629 347.847 162.334 347.847 163.745C347.847 165.155 347.847 167.976 347.847 169.387C347.847 170.797 345.989 172.913 345.37 174.323C345.37 175.029 345.37 175.029 345.37 175.734C344.751 177.144 341.034 181.376 339.795 181.376C336.079 182.081 335.46 179.26 334.221 177.144C332.982 175.029 330.505 172.913 329.266 170.797C328.647 170.092 328.647 168.682 328.027 167.976C325.55 163.745 321.833 159.514 318.117 155.987C317.498 155.282 317.498 154.577 316.878 153.872C316.259 153.872 315.64 153.872 315.02 153.167C314.401 153.167 314.401 151.756 314.401 151.756C310.685 148.935 306.349 148.935 302.013 146.82C300.155 146.114 298.297 143.999 296.439 142.588L297.678 140.473C299.536 139.062 301.394 139.767 303.252 138.357C306.968 136.241 306.349 132.01 304.491 128.484C307.588 126.368 312.543 123.547 314.401 119.316C316.259 114.379 314.401 110.148 311.923 107.327C313.162 101.685 315.64 98.1591 312.543 93.2225C310.685 90.4016 309.446 89.6964 305.11 90.4016C305.729 85.465 305.11 78.4128 302.633 76.2971C300.774 74.8867 296.439 74.8867 294.581 76.2971C293.961 77.0023 293.961 78.4128 293.342 79.118H292.722C291.484 72.771 290.245 70.6553 284.051 72.0658C282.193 72.0658 281.574 72.0658 280.954 72.771L279.096 77.7076H277.857C277.857 77.7076 277.857 76.2971 277.238 75.5919C277.238 74.8867 274.76 72.771 274.141 72.771C265.47 69.9501 262.992 82.6441 259.895 87.5807C259.895 87.5807 258.656 87.5807 258.037 87.5807C258.656 86.8755 257.418 86.8755 257.418 86.8755C256.798 83.3494 260.515 79.8232 259.895 74.8867C259.895 74.8867 258.656 73.4762 258.656 72.771C258.037 72.771 257.418 71.3605 255.56 72.0658C253.082 72.771 248.746 77.7076 246.888 79.118C242.553 82.6441 237.597 85.465 232.642 87.5807C230.784 79.8232 230.784 69.2449 234.501 62.1926C235.12 60.7822 236.978 59.3717 237.597 57.9613C238.836 55.8456 240.694 53.0247 242.553 52.3195C243.791 51.6143 244.411 52.3195 245.649 51.6143C245.649 52.3195 245.649 53.0247 246.269 53.0247C246.269 58.6665 245.649 62.8979 245.03 67.8344H245.649C247.508 61.4874 246.888 50.909 249.366 45.2672C249.985 43.8568 251.843 43.1516 252.463 41.7411L253.082 39.6254C253.701 38.9202 254.321 39.6254 254.94 38.9202C255.56 38.215 256.179 36.8045 257.418 36.0993C258.037 36.0993 258.656 36.0993 259.276 36.0993L259.895 37.5098C260.515 41.0359 259.276 45.2672 259.276 47.3829C258.656 50.2038 258.656 52.3195 258.037 55.1404C258.656 55.1404 259.895 54.4352 259.895 54.4352C262.992 43.1516 260.515 29.7523 270.425 25.521C279.096 21.2896 273.522 34.6889 272.902 38.9202C272.902 40.3307 272.902 41.0359 272.902 42.4463H274.141C279.096 27.6366 276.619 18.4687 292.103 14.9426C292.722 16.353 293.961 17.7635 293.342 21.2896C293.342 21.9948 291.484 23.4053 290.864 24.1105C290.864 24.8157 290.864 25.521 290.864 25.521C290.864 26.9314 289.006 28.3419 288.387 29.7523C287.148 32.5732 287.148 33.9836 287.148 38.215H287.767C288.387 37.5098 287.767 36.8045 288.387 35.3941C288.387 35.3941 289.006 35.3941 289.006 34.6889C289.006 33.9836 289.006 33.2784 289.006 32.5732L290.245 31.1627C290.864 29.7523 290.245 29.0471 290.864 28.3419C292.103 25.521 293.961 21.9948 295.2 19.8792L297.058 16.353C297.058 15.6478 297.058 14.9426 297.058 14.9426H298.916V14.2374C301.394 12.8269 304.491 10.006 308.207 10.006Z" fill="#E63312"/>
</g>
<defs>
<clipPath id="clip0_26_3">
<rect width="1653.07" height="582" fill="white"/>
</clipPath>
</defs>
</svg>
