<svg width="57" height="17" viewBox="0 0 57 17" fill="none" xmlns="http://www.w3.org/2000/svg">
<g clip-path="url(#clip0_371_503)">
<path d="M4.58775 13.6263C4.21304 13.3427 3.78327 13.142 3.32651 13.0375L2.28126 12.7446C1.54029 12.5377 1.30223 12.299 1.30223 11.7675C1.30223 11.2359 1.77519 10.9192 2.55243 10.9192C3.38327 10.9192 3.83731 11.2725 3.90353 11.9648V12.0555H5.00711L4.99923 11.9553C4.88729 10.663 4.00127 9.92773 2.55873 9.92773C1.20921 9.92773 0.231752 10.7012 0.231752 11.7675C0.231752 12.7765 0.752012 13.3923 1.87136 13.7075L3.15309 14.0687C3.81051 14.2549 4.07852 14.535 4.07852 15.0236C4.07852 15.7445 3.29971 15.9992 2.63283 15.9992C2.00221 15.9992 1.21394 15.7955 1.11462 14.8231L1.10358 14.7499H0L0.00945927 14.8501C0.110358 16.1758 1.12092 17.0002 2.64544 17.0002C4.1069 17.0002 5.16792 16.1663 5.16792 15.0172C5.18195 14.7562 5.13701 14.4953 5.0365 14.2543C4.93599 14.0134 4.78254 13.7986 4.58775 13.6263Z" fill="black"/>
<path d="M5.50684 11.083H7.45387V16.8568H8.55115V11.083H10.5045V10.0771H5.50684V11.083Z" fill="black"/>
<path d="M17.1807 16.8568H18.2779V13.9046H21.1425V12.8924H18.2779V11.083H21.3711V10.0771H17.1807V16.8568Z" fill="black"/>
<path d="M22.2812 11.083H24.2283V16.8568H25.3256V11.083H27.2726V10.0771H22.2812V11.083Z" fill="black"/>
<path d="M28.1104 16.8568H32.6303V15.8446H29.2076V13.9046H32.1857V12.8924H29.2076V11.083H32.6303V10.0771H28.1104V16.8568Z" fill="black"/>
<path d="M34.7584 10.0771H33.6611V16.8568H37.716V15.8446H34.7584V10.0771Z" fill="black"/>
<path d="M41.3611 13.0375L40.3175 12.7446C39.5749 12.5377 39.3369 12.299 39.3369 11.7675C39.3369 11.2359 39.8098 10.9192 40.5871 10.9192C41.4242 10.9192 41.8782 11.2725 41.9382 11.9664L41.9476 12.0555H43.0512L43.0417 11.9553C42.933 10.6678 42.0406 9.92773 40.5934 9.92773C39.2454 9.92773 38.2664 10.7012 38.2664 11.7675C38.2664 12.7749 38.7866 13.3908 39.906 13.7075L41.1861 14.0687C41.8404 14.2549 42.1068 14.5334 42.1068 15.0236C42.1068 15.7445 41.328 15.9992 40.6612 15.9992C40.0305 15.9992 39.2423 15.7955 39.1414 14.8231L39.1319 14.7419H38.0283L38.0378 14.8422C38.1466 16.1679 39.1571 16.9922 40.6753 16.9922C42.1368 16.9922 43.1978 16.1583 43.1978 15.0093C43.1978 13.7106 42.2692 13.2825 41.3611 13.0375Z" fill="black"/>
<path d="M44.1729 16.8568H48.6928V15.8446H45.2701V13.9046H48.2482V12.8924H45.2701V11.083H48.6928V10.0771H44.1729V16.8568Z" fill="black"/>
<path d="M53.8802 10.0771V15.3258L51.2978 10.0899L51.2915 10.0771H49.8584V16.8568H50.9226V11.5763L53.5065 16.844L53.5128 16.8568H54.9506V10.0771H53.8802Z" fill="black"/>
<path d="M11.5088 11.0893H13.2304V15.8382H11.5088V16.8568H16.0287V15.8382H14.334V11.0893H16.0287V10.0771H11.5088V11.0893Z" fill="black"/>
<path d="M10.2083 6.38145L7.63222 1.14554L7.62591 1.13281H6.18652V7.91244H7.257V2.63197L9.83307 7.89971L9.83938 7.91244H11.2788V1.13281H10.2083V6.38145Z" fill="black"/>
<path d="M12.1699 2.13862H14.1154V7.91244H15.2142V2.13862H17.1676V1.13281H12.1699V2.13862Z" fill="black"/>
<path d="M22.5703 6.90027H19.1539V4.96028H22.132V3.94811H19.1539V2.13862H22.5703V1.13281H18.0566V7.91244H22.5703V6.90027Z" fill="black"/>
<path d="M26.8236 5.06372L26.8914 5.0494C27.2552 4.99599 27.5915 4.82318 27.8484 4.55764C28.181 4.22184 28.3434 3.74918 28.3434 3.10463C28.3434 2.43463 28.1731 1.94764 27.8279 1.62617C27.4826 1.30469 26.9324 1.13281 26.2135 1.13281H23.6689V7.91244H24.7268V5.1051H25.698L25.7106 5.13216L27.2367 7.91244H28.4522L26.8236 5.06372ZM24.7268 4.1741V2.1052H26.5524C26.9797 2.1052 27.2367 2.35187 27.2367 2.76247V3.48818C27.2424 3.58046 27.2287 3.67293 27.1963 3.75944C27.164 3.84596 27.1138 3.92455 27.0491 3.99001C26.9845 4.05547 26.9067 4.10631 26.8211 4.13914C26.7354 4.17197 26.6439 4.18606 26.5524 4.18046L24.7268 4.1741Z" fill="black"/>
<path d="M34.6821 1.13477H33.6116V6.38182L31.034 1.1475L31.0277 1.13477H29.5898V7.9128H30.6603V2.63233L33.2364 7.90007L33.2427 7.9128H34.6821V1.13477Z" fill="black"/>
<path d="M40.3314 6.90063H36.9166V4.96223H39.8947V3.95006H36.9166V2.13898H40.3314V1.13477H35.8193V7.9128H40.3314V6.90063Z" fill="black"/>
<path d="M44.2788 7.9128V2.13898H46.2258V1.13477H41.2266V2.13898H43.1815V7.9128H44.2788Z" fill="black"/>
<path d="M4.93778 6.89868H3.243V2.14021H4.93778V1.13281H0.433594V2.14021H2.14257V6.89868H0.433594V7.91244H4.93778V6.89868Z" fill="black"/>
<path d="M57.0002 1.12676V3.38663H55.9897V4.51339H54.9759V5.64014H53.9654V6.76849H52.9532V7.89524H51.8575V6.76849H50.8454V5.64014H49.8333V4.51339H48.8227V3.38663H47.8105V1.12676H48.8227V0H51.8575V1.12676H52.9532V0H55.9897V1.12676H57.0002Z" fill="#FF4069"/>
<path fill-rule="evenodd" clip-rule="evenodd" d="M55.8842 1.86362V2.60047H54.4795V1.10449H55.1952V1.86362H55.8842Z" fill="black"/>
</g>
<defs>
<clipPath id="clip0_371_503">
<rect width="57" height="17" fill="white"/>
</clipPath>
</defs>
</svg>
