<svg width="54" height="12" viewBox="0 0 54 12" fill="none" xmlns="http://www.w3.org/2000/svg">
<mask id="mask0_371_526" style="mask-type:luminance" maskUnits="userSpaceOnUse" x="0" y="0" width="54" height="12">
<path d="M54 0H0V11.8798H54V0Z" fill="white"/>
</mask>
<g mask="url(#mask0_371_526)">
<path d="M45.1228 1.92158C45.6844 1.92158 46.1117 1.50653 46.1117 0.961767C46.1117 0.417008 45.6844 0.00195312 45.1228 0.00195312C44.5616 0.00195312 44.1338 0.417008 44.1338 0.961767C44.1338 1.48058 44.5883 1.92158 45.1228 1.92158Z" fill="black"/>
<path d="M8.98441 3.00906H7.70141C7.30049 3.00906 7.24704 3.06094 6.79261 3.50186L2.67634 7.5221V1.21941C2.70307 1.06379 2.56943 0.908164 2.40905 0.882227C2.38232 0.882227 2.35559 0.882227 2.32886 0.882227H0.350902C0.190527 0.856291 0.030152 0.985976 0.00342282 1.1416C0.00342282 1.16753 0.00342282 1.19347 0.00342282 1.21941V2.07533C-0.0233064 2.23095 0.11034 2.38657 0.270715 2.41251C0.297444 2.41251 0.324173 2.41251 0.350902 2.41251H1.07259V10.1936H0.350902C0.190527 10.1677 0.030152 10.2974 0.00342282 10.453C0.00342282 10.4789 0.00342282 10.5049 0.00342282 10.5308V11.3867C-0.0233064 11.5424 0.11034 11.698 0.270715 11.7239C0.297444 11.7239 0.324173 11.7239 0.350902 11.7239H3.34457C3.50495 11.7498 3.66532 11.6461 3.69205 11.4905C3.69205 11.4645 3.69205 11.4386 3.69205 11.4127V10.5308C3.71878 10.3752 3.58514 10.2195 3.42476 10.1936C3.39803 10.1936 3.3713 10.1936 3.34457 10.1936H2.64961V9.54519L4.19991 8.0149L6.92629 11.2311C7.27376 11.672 7.27376 11.672 7.80836 11.672H8.98441C9.14481 11.698 9.30516 11.5683 9.30516 11.4127C9.30516 11.3867 9.30516 11.3608 9.30516 11.3348V10.5308C9.33189 10.3752 9.19826 10.2195 9.03786 10.1936C9.01114 10.1936 8.98441 10.1936 8.95769 10.1936H7.99544L5.29581 6.95148L7.75486 4.5134H8.95769C9.11808 4.53933 9.25171 4.40967 9.27844 4.25404C9.27844 4.2281 9.27844 4.20217 9.27844 4.20217V3.32031C9.30516 3.16468 9.19826 3.00906 9.01114 2.98313C9.03791 3.00906 9.01114 3.00906 8.98441 3.00906Z" fill="black"/>
<path d="M19.5702 10.1952H18.8484V6.48621C18.8484 4.28153 17.4051 2.85501 15.1866 2.85501C14.251 2.82907 13.3422 3.14032 12.6473 3.76281V3.34781C12.674 3.19219 12.5404 3.03657 12.38 3.03657C12.3533 3.03657 12.3265 3.03657 12.2998 3.03657H10.3753C10.215 3.01064 10.0546 3.11438 10.0278 3.29594C10.0278 3.32188 10.0278 3.34781 10.0278 3.37375V4.22967C10.0011 4.38531 10.1347 4.54093 10.2951 4.56686C10.3219 4.56686 10.3486 4.56686 10.3753 4.56686H11.097V10.2211H10.3753C10.215 10.1952 10.0546 10.3249 10.0278 10.4805C10.0278 10.5064 10.0278 10.5324 10.0278 10.5583V11.4142C10.0278 11.5698 10.1347 11.7255 10.3219 11.7255C10.3486 11.7255 10.3486 11.7255 10.3753 11.7255H13.369C13.5294 11.7514 13.6897 11.6217 13.7164 11.4661C13.7164 11.4401 13.7164 11.4142 13.7164 11.4142V10.5324C13.7432 10.3767 13.6095 10.2211 13.4492 10.1952C13.4225 10.1952 13.3957 10.1952 13.369 10.1952H12.674V6.74558C12.674 5.31902 13.6897 4.3075 15.1064 4.3075C16.523 4.3075 17.2982 5.16339 17.2982 6.6418V10.1952H16.5765C16.4161 10.1693 16.2557 10.2989 16.2557 10.4805C16.2557 10.5064 16.2557 10.5324 16.2557 10.5583V11.4142C16.229 11.5698 16.3627 11.7255 16.523 11.7514C16.5497 11.7514 16.5765 11.7514 16.6032 11.7514H19.5969C19.7572 11.7774 19.9176 11.6477 19.9444 11.492C19.9444 11.4661 19.9444 11.4401 19.9444 11.4142V10.5324C19.9711 10.3767 19.8375 10.2211 19.6771 10.1952C19.6236 10.1952 19.5969 10.1952 19.5702 10.1952Z" fill="black"/>
<path d="M24.4595 2.85645C21.9202 2.85645 19.8887 4.85358 19.8887 7.29166C19.8887 7.31763 19.8887 7.34355 19.8887 7.39544C19.8353 9.83352 21.84 11.8306 24.3525 11.8825C24.3792 11.8825 24.406 11.8825 24.4327 11.8825C26.972 11.8825 29.0301 9.88537 29.0301 7.44729C29.0301 7.42137 29.0301 7.39544 29.0301 7.36948C29.0836 4.9314 27.0789 2.93425 24.5664 2.88238C24.5129 2.85645 24.4862 2.85645 24.4595 2.85645ZM24.4595 10.4041C22.8022 10.4041 21.5192 9.05539 21.5192 7.34355C21.5192 5.63171 22.7755 4.33486 24.4327 4.33486C26.0899 4.33486 27.3997 5.68356 27.3997 7.39544C27.3997 9.10728 26.1167 10.4041 24.4595 10.4041Z" fill="black"/>
<path d="M42.3143 3.01078H39.2404C39.0801 2.98484 38.9197 3.08859 38.8929 3.27015C38.8929 3.29609 38.8929 3.32203 38.8929 3.34796V4.20388C38.8662 4.35951 38.9998 4.51513 39.1602 4.54106C39.187 4.54106 39.2137 4.54106 39.2404 4.54106H39.9354L38.4653 9.13193L36.3804 3.27015C36.3269 3.11453 36.1666 3.01078 36.0062 3.01078H35.3914C35.2311 3.01078 35.0707 3.11453 35.0172 3.27015L32.9591 9.13193L31.489 4.51513H32.1839C32.3443 4.54106 32.5047 4.4114 32.5314 4.25577C32.5314 4.22982 32.5314 4.20388 32.5314 4.17795V3.32203C32.5581 3.16641 32.4245 3.01078 32.2641 3.01078C32.2374 3.01078 32.2106 3.01078 32.1839 3.01078H29.0833C28.923 2.98484 28.7626 3.11453 28.7358 3.27015C28.7358 3.29609 28.7358 3.32203 28.7358 3.32203V4.17795C28.7091 4.33359 28.8428 4.48921 29.0031 4.51513C29.0299 4.51513 29.0566 4.51513 29.0566 4.51513H29.7783L32.2106 11.4662C32.2641 11.6219 32.4245 11.7256 32.5848 11.7256H33.2531C33.4135 11.7256 33.5738 11.6219 33.6273 11.4662L35.6587 5.7601L37.6901 11.4662C37.7436 11.6219 37.904 11.7256 38.0644 11.7256H38.7326C38.8929 11.7256 39.0533 11.6219 39.1068 11.4662L41.5658 4.51513H42.2876C42.4479 4.54106 42.6083 4.4114 42.635 4.25577C42.635 4.22982 42.635 4.20388 42.635 4.20388V3.34796C42.6618 3.19234 42.5281 3.03672 42.3677 3.03672C42.3677 3.01078 42.341 3.01078 42.3143 3.01078Z" fill="black"/>
<path d="M46.671 10.1961H45.9493V3.34874C45.976 3.19312 45.8421 3.0375 45.682 3.0375C45.6554 3.0375 45.6282 3.0375 45.6282 3.0375H43.6505C43.4901 3.01156 43.3297 3.14125 43.3297 3.29687C43.3297 3.32281 43.3297 3.34874 43.3297 3.37468V4.2306C43.303 4.38621 43.4367 4.54184 43.597 4.56776C43.6237 4.56776 43.6505 4.56776 43.6772 4.56776H44.3987V10.222H43.0892C42.9288 10.1961 42.7684 10.3258 42.7417 10.4814C42.7417 10.5074 42.7417 10.5333 42.7417 10.5592V11.4152C42.715 11.5708 42.8486 11.7264 43.009 11.7523C43.0357 11.7523 43.0625 11.7523 43.0892 11.7523H46.671C46.8311 11.7783 46.9916 11.6486 47.0183 11.493C47.0183 11.467 47.0183 11.4411 47.0183 11.4152V10.5333C47.045 10.3777 46.9116 10.222 46.7511 10.1961C46.7244 10.1961 46.6977 10.1961 46.671 10.1961Z" fill="black"/>
<path d="M53.6219 7.29105H52.7663C52.6062 7.26513 52.4457 7.39479 52.419 7.55041C52.419 7.57638 52.419 7.6023 52.419 7.62823V9.23633C52.4457 9.83287 51.9646 10.3516 51.3496 10.3776C50.4944 10.3776 50.12 10.0404 50.12 9.21041V4.54172H52.2051C52.3657 4.56765 52.5258 4.43799 52.5524 4.28236C52.5524 4.25644 52.5524 4.23048 52.5524 4.20455V3.34863C52.5791 3.19301 52.4457 3.03738 52.2852 3.03738C52.2585 3.03738 52.2318 3.03738 52.2318 3.03738H50.1471V1.24773C50.1738 1.09211 50.0667 0.936484 49.8799 0.910548C49.8528 0.910548 49.8261 0.910548 49.7994 0.910548H48.8909C48.7304 0.884612 48.5698 1.01429 48.5432 1.16992C48.5432 1.19585 48.5432 1.22179 48.5432 1.24773V3.06332H47.5809C47.4208 3.03738 47.2603 3.16706 47.2603 3.32269C47.2603 3.34863 47.2603 3.34863 47.2603 3.37456V4.23048C47.2336 4.3861 47.367 4.54172 47.5275 4.56765C47.5542 4.56765 47.5809 4.56765 47.6076 4.56765H48.5698V9.31414C48.5698 10.8704 49.6122 11.8819 51.2428 11.8819C52.9269 11.8819 53.9959 10.8963 53.9959 9.39196V7.65415C54.0226 7.49857 53.8891 7.34294 53.7286 7.31698C53.7019 7.29105 53.6753 7.29105 53.6219 7.29105Z" fill="black"/>
</g>
</svg>
