<svg width="30" height="470" viewBox="0 0 30 470" fill="none" xmlns="http://www.w3.org/2000/svg">
<path d="M16.1408 0.585787C15.3597 -0.195262 14.0934 -0.195262 13.3123 0.585786L0.584426 13.3137C-0.196623 14.0948 -0.196623 15.3611 0.584426 16.1421C1.36547 16.9232 2.6318 16.9232 3.41285 16.1421L14.7266 4.82843L26.0403 16.1421C26.8213 16.9232 28.0876 16.9232 28.8687 16.1421C29.6497 15.3611 29.6497 14.0948 28.8687 13.3137L16.1408 0.585787ZM13.3123 469.414C14.0934 470.195 15.3597 470.195 16.1408 469.414L28.8687 456.686C29.6497 455.905 29.6497 454.639 28.8687 453.858C28.0876 453.077 26.8213 453.077 26.0402 453.858L14.7265 465.172L3.41283 453.858C2.63178 453.077 1.36545 453.077 0.584403 453.858C-0.196646 454.639 -0.196646 455.905 0.584403 456.686L13.3123 469.414ZM14.7266 2L12.7266 2L12.7265 468L14.7265 468L16.7265 468L16.7266 2L14.7266 2Z" fill="white"/>
</svg>
