<svg width="848" height="30" viewBox="0 0 848 30" fill="none" xmlns="http://www.w3.org/2000/svg">
<path d="M847.414 16.1422C848.195 15.3612 848.195 14.0949 847.414 13.3138L834.686 0.585892C833.905 -0.195157 832.639 -0.195157 831.858 0.585892C831.077 1.36694 831.077 2.63327 831.858 3.41432L843.172 14.728L831.858 26.0417C831.077 26.8228 831.077 28.0891 831.858 28.8702C832.639 29.6512 833.905 29.6512 834.686 28.8702L847.414 16.1422ZM0.585876 13.3138C-0.19519 14.0949 -0.19519 15.3612 0.585876 16.1422L13.3138 28.8702C14.0948 29.6512 15.3611 29.6512 16.1422 28.8702C16.9232 28.0891 16.9232 26.8228 16.1422 26.0417L4.82849 14.728L16.1422 3.41432C16.9232 2.63327 16.9232 1.36694 16.1422 0.585892C15.3611 -0.195157 14.0948 -0.195157 13.3138 0.585892L0.585876 13.3138ZM846 14.728V12.728L2.00006 12.728V14.728V16.728L846 16.728V14.728Z" fill="white"/>
</svg>
