<svg width="60" height="60" viewBox="0 0 60 60" fill="none" xmlns="http://www.w3.org/2000/svg">
<path d="M17.9839 50.7407L13.9883 57.9502" stroke="white" stroke-width="4" stroke-linecap="round" stroke-linejoin="round"/>
<path d="M41.9648 50.7407L45.9605 57.9502" stroke="white" stroke-width="4" stroke-linecap="round" stroke-linejoin="round"/>
<path d="M29.9748 53.9538C43.2179 53.9538 53.9536 43.2182 53.9536 29.9751C53.9536 16.732 43.2179 5.99634 29.9748 5.99634C16.7317 5.99634 5.99609 16.732 5.99609 29.9751C5.99609 43.2182 16.7317 53.9538 29.9748 53.9538Z" stroke="white" stroke-width="4" stroke-linecap="round" stroke-linejoin="round"/>
<path d="M6.79867 23.583C4.95778 22.2032 3.55274 20.3229 2.75121 18.1665C1.94967 16.01 1.78549 13.6685 2.27825 11.4213C2.77102 9.17413 3.89992 7.11617 5.53024 5.49299C7.16057 3.86981 9.22348 2.74996 11.4728 2.26708C13.7222 1.7842 16.0629 1.95867 18.2158 2.76967C20.3687 3.58068 22.2428 4.99397 23.6145 6.8409" stroke="white" stroke-width="4" stroke-linecap="round" stroke-linejoin="round"/>
<path d="M29.9766 5.99644L29.9767 2" stroke="white" stroke-width="4" stroke-linecap="round" stroke-linejoin="round"/>
<path d="M29.9766 17.9857V29.975" stroke="white" stroke-width="4" stroke-linecap="round" stroke-linejoin="round"/>
<path d="M29.9766 29.9751L38.4543 38.4528" stroke="white" stroke-width="4" stroke-linecap="round" stroke-linejoin="round"/>
<path d="M53.1518 23.583C54.9927 22.2032 56.3977 20.3229 57.1992 18.1665C58.0008 16.01 58.1649 13.6685 57.6722 11.4213C57.1794 9.17413 56.0505 7.11617 54.4202 5.49299C52.7899 3.86981 50.7269 2.74996 48.4776 2.26708C46.2283 1.7842 43.8875 1.95867 41.7346 2.76967C39.5817 3.58068 37.7076 4.99397 36.3359 6.8409" stroke="white" stroke-width="4" stroke-linecap="round" stroke-linejoin="round"/>
</svg>
