<svg width="64" height="64" viewBox="0 0 64 64" fill="none" xmlns="http://www.w3.org/2000/svg">
<path d="M48.0013 42.6667C49.4158 42.6667 50.7723 43.2287 51.7725 44.2288C52.7727 45.229 53.3346 46.5856 53.3346 48.0001C53.3346 49.4146 52.7727 50.7711 51.7725 51.7713C50.7723 52.7715 49.4158 53.3334 48.0013 53.3334C46.5868 53.3334 45.2303 52.7715 44.2301 51.7713C43.2299 50.7711 42.668 49.4146 42.668 48.0001M48.0013 42.6667C46.5868 42.6667 45.2303 43.2287 44.2301 44.2288C43.2299 45.229 42.668 46.5856 42.668 48.0001M48.0013 42.6667V21.3334M42.668 48.0001H21.3346M21.3346 48.0001C21.3346 46.5856 20.7727 45.229 19.7725 44.2288C18.7723 43.2287 17.4158 42.6667 16.0013 42.6667M21.3346 48.0001C21.3346 49.4146 20.7727 50.7711 19.7725 51.7713C18.7723 52.7715 17.4158 53.3334 16.0013 53.3334C14.5868 53.3334 13.2303 52.7715 12.2301 51.7713C11.2299 50.7711 10.668 49.4146 10.668 48.0001C10.668 46.5856 11.2299 45.229 12.2301 44.2288C13.2303 43.2287 14.5868 42.6667 16.0013 42.6667M16.0013 42.6667V21.3334M21.3346 16.0001C21.3346 14.5856 20.7727 13.229 19.7725 12.2288C18.7723 11.2287 17.4158 10.6667 16.0013 10.6667C14.5868 10.6667 13.2303 11.2287 12.2301 12.2288C11.2299 13.229 10.668 14.5856 10.668 16.0001C10.668 17.4146 11.2299 18.7711 12.2301 19.7713C13.2303 20.7715 14.5868 21.3334 16.0013 21.3334M21.3346 16.0001C21.3346 17.4146 20.7727 18.7711 19.7725 19.7713C18.7723 20.7715 17.4158 21.3334 16.0013 21.3334M21.3346 16.0001H42.668M42.668 16.0001C42.668 14.5856 43.2299 13.229 44.2301 12.2288C45.2303 11.2287 46.5868 10.6667 48.0013 10.6667C49.4158 10.6667 50.7723 11.2287 51.7725 12.2288C52.7727 13.229 53.3346 14.5856 53.3346 16.0001C53.3346 17.4146 52.7727 18.7711 51.7725 19.7713C50.7723 20.7715 49.4158 21.3334 48.0013 21.3334M42.668 16.0001C42.668 17.4146 43.2299 18.7711 44.2301 19.7713C45.2303 20.7715 46.5868 21.3334 48.0013 21.3334M20.0013 20.0001L28.0013 28.0001M37.3346 32.0001C37.3346 30.5856 36.7727 29.229 35.7725 28.2288C34.7723 27.2287 33.4158 26.6667 32.0013 26.6667C30.5868 26.6667 29.2303 27.2287 28.2301 28.2288C27.2299 29.229 26.668 30.5856 26.668 32.0001C26.668 33.4146 27.2299 34.7711 28.2301 35.7713C29.2303 36.7715 30.5868 37.3334 32.0013 37.3334C33.4158 37.3334 34.7723 36.7715 35.7725 35.7713C36.7727 34.7711 37.3346 33.4146 37.3346 32.0001Z" stroke="white" stroke-width="3.33" stroke-linecap="round" stroke-linejoin="round"/>
</svg>
