<svg width="56" height="56" viewBox="0 0 56 56" fill="none" xmlns="http://www.w3.org/2000/svg">
<path d="M14.25 31.25L16.75 33.75C22.9625 27.5375 33.0375 27.5375 39.25 33.75L41.75 31.25C34.1625 23.6625 21.85 23.6625 14.25 31.25ZM24.25 41.25L28 45L31.75 41.25C31.258 40.7567 30.6735 40.3653 30.03 40.0982C29.3866 39.8312 28.6967 39.6937 28 39.6937C27.3033 39.6937 26.6134 39.8312 25.97 40.0982C25.3265 40.3653 24.742 40.7567 24.25 41.25ZM19.25 36.25L21.75 38.75C23.4081 37.0932 25.6561 36.1626 28 36.1626C30.3439 36.1626 32.5919 37.0932 34.25 38.75L36.75 36.25C31.925 31.425 24.0875 31.425 19.25 36.25Z" fill="white"/>
<path d="M28 0C43.464 0 56 12.536 56 28C56 43.464 43.464 56 28 56C12.536 56 0 43.464 0 28C0 12.536 12.536 0 28 0ZM18.796 38C19.342 41.304 20.148 44.26 21.148 46.714C22.114 49.086 23.24 50.94 24.44 52.184C25.636 53.424 26.838 54 28 54C29.162 54 30.364 53.426 31.56 52.184C32.76 50.94 33.886 49.086 34.852 46.714C35.852 44.26 36.658 41.304 37.206 38H18.796ZM3.996 38C5.64035 41.9389 8.22776 45.4133 11.5305 48.1172C14.8332 50.8211 18.75 52.6716 22.936 53.506C21.53 52.022 20.304 49.946 19.296 47.468C18.2 44.78 17.338 41.564 16.77 38H3.996ZM39.23 38C38.662 41.564 37.8 44.78 36.706 47.468C35.696 49.948 34.468 52.022 33.06 53.506C37.2471 52.6725 41.1651 50.8224 44.4689 48.1184C47.7728 45.4145 50.3611 41.9397 52.006 38H39.23ZM3.254 20C2.42075 22.5848 1.99762 25.2842 2 28C2 30.792 2.44 33.48 3.254 36H16.484C16.1608 33.3456 15.9991 30.674 16 28C16 25.224 16.17 22.538 16.484 20H3.254ZM18.5 20C18.1663 22.6536 17.9993 25.3255 18 28C18 30.794 18.176 33.48 18.5 36H37.5C37.824 33.48 38 30.794 38 28C38 25.206 37.824 22.52 37.5 20H18.5ZM39.516 20C39.83 22.538 40 25.224 40 28C40 30.776 39.83 33.462 39.516 36H52.746C53.5792 33.4152 54.0024 30.7158 54 28C54 25.208 53.56 22.52 52.746 20H39.516ZM22.936 2.492C18.7501 3.32685 14.8336 5.17787 11.5313 7.88212C8.22889 10.5864 5.6419 14.0609 3.998 18H16.772C17.34 14.436 18.202 11.22 19.298 8.532C20.306 6.052 21.53 3.976 22.936 2.492ZM28 2C26.838 2 25.636 2.574 24.44 3.816C23.24 5.06 22.114 6.914 21.148 9.286C20.148 11.74 19.342 14.696 18.796 18H37.206C36.658 14.696 35.852 11.74 34.852 9.286C33.886 6.914 32.76 5.06 31.56 3.816C30.364 2.576 29.162 2 28 2ZM33.06 2.492C34.468 3.976 35.696 6.052 36.704 8.532C37.8 11.22 38.662 14.436 39.23 18H52.006C50.3614 14.06 47.7731 10.5848 44.4693 7.88044C41.1655 5.17612 37.2473 3.32565 33.06 2.492Z" fill="white"/>
</svg>
