<svg width="64" height="64" viewBox="0 0 64 64" fill="none" xmlns="http://www.w3.org/2000/svg">
<path d="M21.9492 58.6667L35.0159 45.6L44.3492 54.9333L59.2826 40" stroke="white" stroke-width="4"/>
<path d="M44.6146 39.9999H59.2813V54.6666M38.5266 35.3439C41.1961 31.7632 42.5313 27.3626 42.3014 22.9023C42.0715 18.4419 40.291 14.2019 37.2675 10.9146C34.244 7.62734 30.1674 5.49924 25.7418 4.89792C21.3161 4.2966 16.8195 5.25982 13.0285 7.6212C9.23751 9.98257 6.39027 13.5938 4.97861 17.8311C3.56694 22.0684 3.67949 26.6657 5.29681 30.8289C6.91414 34.9921 9.93467 38.4596 13.8367 40.6327C17.7387 42.8057 22.2771 43.5477 26.668 42.7306M23.1666 15.8852V10.5519M23.1666 37.2186V31.8852" stroke="white" stroke-width="4"/>
<path d="M29.168 19.8853V18.5519C29.168 17.8447 28.887 17.1664 28.3869 16.6663C27.8868 16.1662 27.2085 15.8853 26.5013 15.8853H19.8346C19.1274 15.8853 18.4491 16.1662 17.949 16.6663C17.4489 17.1664 17.168 17.8447 17.168 18.5519V19.7439C17.1675 20.351 17.3741 20.9401 17.7538 21.4138C18.1334 21.8875 18.6634 22.2175 19.256 22.3493L27.0773 24.0879C27.67 24.219 28.2002 24.5484 28.5803 25.0216C28.9604 25.4949 29.1677 26.0836 29.168 26.6906V29.2159C29.168 29.9232 28.887 30.6014 28.3869 31.1015C27.8868 31.6016 27.2085 31.8826 26.5013 31.8826H19.8346C19.1274 31.8826 18.4491 31.6016 17.949 31.1015C17.4489 30.6014 17.168 29.9232 17.168 29.2159V27.8826" stroke="white" stroke-width="4"/>
</svg>
