<svg width="50" height="50" viewBox="0 0 50 50" fill="none" xmlns="http://www.w3.org/2000/svg">
<g clip-path="url(#clip0_350_600)">
<path d="M43.8252 33.0909L40.1845 29.3333C41.8026 28.8889 43.1173 28.0303 44.1286 26.7576C45.14 25.4848 45.6456 24 45.6456 22.303C45.6456 20.2828 44.9377 18.5657 43.5218 17.1515C42.106 15.7374 40.3867 15.0303 38.3641 15.0303H28.6553V10.1818H38.3641C41.7217 10.1818 44.5837 11.3636 46.9502 13.7273C49.3167 16.0909 50.5 18.9495 50.5 22.303C50.5 24.6061 49.9033 26.7273 48.7099 28.6667C47.5166 30.6061 45.8883 32.0808 43.8252 33.0909ZM35.5728 24.7273L30.7184 19.8788H35.9369V24.7273H35.5728ZM45.1602 48L0.5 3.39394L3.89806 0L48.5583 44.6061L45.1602 48ZM23.801 34.4242H14.0922C10.7346 34.4242 7.87257 33.2424 5.50607 30.8788C3.13956 28.5152 1.95631 25.6566 1.95631 22.303C1.95631 19.5152 2.80583 17.0303 4.50485 14.8485C6.20388 12.6667 8.38835 11.2323 11.0583 10.5455L15.5485 15.0303H14.0922C12.0696 15.0303 10.3503 15.7374 8.93447 17.1515C7.51861 18.5657 6.81068 20.2828 6.81068 22.303C6.81068 24.3232 7.51861 26.0404 8.93447 27.4545C10.3503 28.8687 12.0696 29.5758 14.0922 29.5758H23.801V34.4242ZM16.5194 24.7273V19.8788H20.4636L25.2573 24.7273H16.5194Z" fill="white"/>
</g>
<defs>
<clipPath id="clip0_350_600">
<rect width="50" height="50" fill="white"/>
</clipPath>
</defs>
</svg>
