<svg width="64" height="64" viewBox="0 0 64 64" fill="none" xmlns="http://www.w3.org/2000/svg">
<path d="M28.668 8.95469C32.1133 5.76325 36.6383 3.99324 41.3346 4.00002C51.644 4.00002 60.0013 12.3574 60.0013 22.6667C60.0013 32.976 51.644 41.3334 41.3346 41.3334C39.4813 41.3334 37.6906 41.0627 36.0013 40.56" stroke="white" stroke-width="4" stroke-linecap="round" stroke-linejoin="round"/>
<path d="M44.2747 4.23071C44.5112 6.36333 44.5914 8.51039 44.5147 10.6547C44.48 11.6867 44.1253 12.6947 43.396 13.4254C41.78 15.0467 40.1867 15.5827 39.5613 15.7414C39.3781 15.783 39.1917 15.8085 39.004 15.8174C37.9107 15.8974 33.9653 16.2974 33.4013 18.0014C32.9653 19.3134 33.58 21.9494 34.0453 23.58C34.3093 24.5054 34.4 25.48 34.1227 26.4027C33.796 27.488 33.2227 29.0134 32.3053 30.312C32.1399 30.5465 31.9425 30.7565 31.7187 30.936M59.8667 24.9174C55.5253 24.024 51.1413 23.4294 48.516 23.1134C46.9293 22.9227 45.26 23.22 44.164 24.3827C43.7455 24.829 43.3688 25.3129 43.0387 25.828C41.5787 28.0974 42.7573 30.8814 44.8947 32.5294L46.82 34.0147C47.496 34.5347 47.896 35.3347 47.944 36.1854C47.9973 37.1147 48.0973 38.4574 48.288 39.9947M9.336 35.996C7.67826 37.2374 6.33281 38.8482 5.40653 40.7006C4.48025 42.5529 3.99865 44.5957 4 46.6667C4 54.0307 9.96934 60 17.3333 60C24.6973 60 30.6667 54.0307 30.6667 46.6667C30.668 44.5957 30.1864 42.5529 29.2601 40.7006C28.3339 38.8482 26.9884 37.2374 25.3307 35.996L25.3333 34C25.3333 26.64 25.2107 21.4414 25.0613 17.84C24.8653 13.124 22.0547 9.33338 17.3333 9.33338C12.612 9.33338 9.8 13.1227 9.60534 17.84C9.456 21.4427 9.33334 26.64 9.33334 34C9.33334 34.6845 9.33422 35.3498 9.336 35.996Z" stroke="white" stroke-width="4" stroke-linecap="round" stroke-linejoin="round"/>
<path d="M17.332 42.6667C16.2712 42.6667 15.2537 43.0882 14.5036 43.8383C13.7535 44.5885 13.332 45.6059 13.332 46.6667C13.332 47.7276 13.7535 48.745 14.5036 49.4952C15.2537 50.2453 16.2712 50.6667 17.332 50.6667C18.3929 50.6667 19.4103 50.2453 20.1605 49.4952C20.9106 48.745 21.332 47.7276 21.332 46.6667C21.332 45.6059 20.9106 44.5885 20.1605 43.8383C19.4103 43.0882 18.3929 42.6667 17.332 42.6667ZM17.332 42.6667V18.6667" stroke="white" stroke-width="4" stroke-linecap="round" stroke-linejoin="round"/>
</svg>
