<svg width="64" height="64" viewBox="0 0 64 64" fill="none" xmlns="http://www.w3.org/2000/svg">
<path d="M32.0013 34.6666C34.8303 34.6666 37.5434 33.5428 39.5438 31.5424C41.5442 29.542 42.668 26.8289 42.668 23.9999C42.668 21.1709 41.5442 18.4578 39.5438 16.4574C37.5434 14.4571 34.8303 13.3333 32.0013 13.3333C29.1723 13.3333 26.4592 14.4571 24.4588 16.4574C22.4584 18.4578 21.3346 21.1709 21.3346 23.9999C21.3346 26.8289 22.4584 29.542 24.4588 31.5424C26.4592 33.5428 29.1723 34.6666 32.0013 34.6666ZM32.0013 34.6666C27.7578 34.6666 23.6882 36.3523 20.6876 39.3529C17.687 42.3535 16.0013 46.4231 16.0013 50.6666V58.6666M32.0013 34.6666C36.2448 34.6666 40.3144 36.3523 43.315 39.3529C46.3156 42.3535 48.0013 46.4231 48.0013 50.6666V58.6666M34.668 13.3333C35.7453 8.89592 40.0413 5.33325 45.3346 5.33325C51.1266 5.33325 55.948 10.1066 56.0013 15.9999C55.948 21.8933 51.1266 26.6666 45.3346 26.6666M45.3346 26.6666H42.668M45.3346 26.6666C54.1026 26.6666 61.3346 33.8293 61.3346 42.6666V47.9999M29.3346 13.3333C28.2573 8.89592 23.9613 5.33325 18.668 5.33325C12.876 5.33325 8.05464 10.1066 8.0013 15.9999C8.05464 21.8933 12.876 26.6666 18.668 26.6666M18.668 26.6666H21.3346M18.668 26.6666C9.89997 26.6666 2.66797 33.8293 2.66797 42.6666V47.9999" stroke="white" stroke-width="5.33333"/>
</svg>
