<svg width="124" height="72" viewBox="0 0 124 72" fill="none" xmlns="http://www.w3.org/2000/svg">
<path d="M57.008 24.0455L33.008 10.0455C32.7021 9.86699 32.3542 9.77292 32 9.77292C31.6458 9.77292 31.2979 9.86699 30.992 10.0455L6.992 24.0455C6.69004 24.2217 6.43955 24.474 6.26549 24.7772C6.09144 25.0804 5.9999 25.4239 6 25.7735V53.7735C5.9999 54.1231 6.09144 54.4666 6.26549 54.7698C6.43955 55.073 6.69004 55.3253 6.992 55.5015L30.992 69.5015C31.2979 69.68 31.6458 69.7741 32 69.7741C32.3542 69.7741 32.7021 69.68 33.008 69.5015L57.008 55.5015C57.31 55.3253 57.5604 55.073 57.7345 54.7698C57.9086 54.4666 58.0001 54.1231 58 53.7735V25.7735C58.0001 25.4239 57.9086 25.0804 57.7345 24.7772C57.5604 24.474 57.31 24.2217 57.008 24.0455ZM32 14.0895L52.032 25.7735L32 37.4575L11.968 25.7735L32 14.0895ZM10 29.2535L30 40.9195V64.2935L10 52.6255V29.2535ZM34 64.2935V40.9215L54 29.2555V52.6255L34 64.2935Z" fill="white"/>
<g clip-path="url(#clip0_350_1452)">
<path d="M117.008 24.0461L93.008 10.0461C92.7021 9.86757 92.3542 9.7735 92 9.7735C91.6458 9.7735 91.2979 9.86757 90.992 10.0461L66.992 24.0461C66.69 24.2223 66.4396 24.4746 66.2655 24.7778C66.0914 25.081 65.9999 25.4245 66 25.7741V53.7741C65.9999 54.1237 66.0914 54.4672 66.2655 54.7704C66.4396 55.0736 66.69 55.3259 66.992 55.5021L90.992 69.5021C91.2979 69.6806 91.6458 69.7747 92 69.7747C92.3542 69.7747 92.7021 69.6806 93.008 69.5021L117.008 55.5021C117.31 55.3259 117.56 55.0736 117.735 54.7704C117.909 54.4672 118 54.1237 118 53.7741V25.7741C118 25.4245 117.909 25.081 117.735 24.7778C117.56 24.4746 117.31 24.2223 117.008 24.0461ZM92 14.0901L112.032 25.7741L92 37.4581L71.968 25.7741L92 14.0901ZM70 29.2541L90 40.9201V64.2941L70 52.6261V29.2541ZM94 64.2941V40.9221L114 29.2561V52.6261L94 64.2941Z" fill="white"/>
<circle cx="68" cy="25.7735" r="5" fill="white" stroke="white" stroke-width="2"/>
<circle cx="91" cy="10.7735" r="5" fill="white" stroke="white" stroke-width="2"/>
<circle cx="116" cy="23.7735" r="5" fill="white" stroke="white" stroke-width="2"/>
<circle cx="117" cy="51.7735" r="5" fill="white" stroke="white" stroke-width="2"/>
<circle cx="92" cy="66.7735" r="5" fill="white" stroke="white" stroke-width="2"/>
<circle cx="68" cy="53.7735" r="5" fill="white" stroke="white" stroke-width="2"/>
</g>
<path d="M81 5.7735L71 -4.29153e-06V11.547L81 5.7735ZM46 5.7735V6.7735H72V5.7735V4.7735H46V5.7735Z" fill="white"/>
<defs>
<clipPath id="clip0_350_1452">
<rect width="64" height="68" fill="white" transform="translate(60 3.7735)"/>
</clipPath>
</defs>
</svg>
