<svg width="65" height="44" viewBox="0 0 65 44" fill="none" xmlns="http://www.w3.org/2000/svg">
<path d="M18.25 3.87744V43.6212H2.43359V3.87744H18.25ZM3.65024 42.4046H17.0334V5.09409H3.65024V42.4046Z" fill="white"/>
<path d="M8.51603 8.74341V11.9878H6.48828V8.74341H8.51603ZM6.89383 11.5823H8.11048V9.14896H6.89383V11.5823Z" fill="white"/>
<path d="M14.1957 8.74341V11.9878H12.168V8.74341H14.1957ZM12.5735 11.5823H13.7902V9.14896H12.5735V11.5823Z" fill="white"/>
<path d="M14.1957 14.8267V18.0711H12.168V14.8267H14.1957ZM12.5735 17.6655H13.7902V15.2322H12.5735V17.6655Z" fill="white"/>
<path d="M8.51603 14.8267V18.0711H6.48828V14.8267H8.51603ZM6.89383 17.6655H8.11048V15.2322H6.89383V17.6655Z" fill="white"/>
<path d="M8.51603 21.3159V24.5603H6.48828V21.3159H8.51603ZM6.89383 24.1548H8.11048V21.7215H6.89383V24.1548Z" fill="white"/>
<path d="M14.1957 21.3159V24.5603H12.168V21.3159H14.1957ZM12.5735 24.1548H13.7902V21.7215H12.5735V24.1548Z" fill="white"/>
<path d="M8.92228 27.8052V31.0496H6.89453V27.8052H8.92228ZM7.30008 30.644H8.51673V28.2107H7.30008V30.644Z" fill="white"/>
<path d="M30.0088 11.9868V43.6196H17.0312V11.9868H30.0088ZM18.2479 42.403H28.7922V13.2035H18.2479V42.403Z" fill="white"/>
<path d="M25.1814 17.26V20.4699H23.1133V17.26H25.1814ZM23.5188 20.0644H24.7759V17.6656H23.5188V20.0644Z" fill="white"/>
<path d="M38.1213 33.0762V43.6204H29.1992V33.0762H38.1213ZM30.0103 42.8093H37.3102V33.8873H30.0103V42.8093Z" fill="white"/>
<path d="M49.0712 24.9648V43.6201H40.5547V24.9648H49.0712ZM41.3658 42.809H48.2601V25.7759H41.3658V42.809Z" fill="white"/>
<path d="M62.0464 16.0437V43.621H52.7188V16.0437H62.0464ZM53.5298 42.8099H61.2353V16.8548H53.5298V42.8099Z" fill="white"/>
<path d="M64.0767 42.8091V43.6202H0V42.8091H64.0767Z" fill="white"/>
<path d="M7.70703 39.9698V36.3199C27.3356 33.3999 40.7593 17.2591 45.0175 9.55367L40.3537 7.12037L52.9257 0.631592L54.3452 14.0147L50.6952 12.1897C39.6643 32.4672 17.4402 39.1587 7.70703 39.9698Z" fill="white"/>
<path d="M54.826 14.7095L50.8612 12.7269C39.6779 32.9015 17.4934 39.5615 7.73999 40.3743L7.30078 40.4111V35.9707L7.64653 35.9192C17.366 34.4733 25.5613 29.7519 31.8634 24.422C37.9708 19.2569 42.2806 13.5363 44.458 9.72011L39.4726 7.11889L53.2656 0L54.826 14.7095ZM41.2334 7.12245L45.5729 9.38664L45.3717 9.7502C43.2189 13.6458 38.7671 19.646 32.3874 25.0415C26.0804 30.3754 17.869 35.1343 8.11188 36.6677V39.526C17.9846 38.56 39.5597 31.8095 50.3381 11.9966L50.5254 11.6524L53.8629 13.3209L52.584 1.26417L41.2334 7.12245Z" fill="white"/>
</svg>
